<svg xmlns="http://www.w3.org/2000/svg" xmlns:xlink="http://www.w3.org/1999/xlink" width="201" zoomAndPan="magnify" viewBox="0 0 150.75 98.999996" height="132" preserveAspectRatio="xMidYMid meet" version="1.0"><defs><clipPath id="5a8c937f6b"><path d="M 89 37 L 150.460938 37 L 150.460938 82 L 89 82 Z M 89 37 " clip-rule="nonzero"/></clipPath><clipPath id="3978c041d7"><path d="M 88 36 L 150.460938 36 L 150.460938 83 L 88 83 Z M 88 36 " clip-rule="nonzero"/></clipPath><clipPath id="4a0c350399"><path d="M 81 0.0820312 L 97 0.0820312 L 97 13 L 81 13 Z M 81 0.0820312 " clip-rule="nonzero"/></clipPath><clipPath id="c4c0b1f39a"><path d="M 80 0.0820312 L 98 0.0820312 L 98 14 L 80 14 Z M 80 0.0820312 " clip-rule="nonzero"/></clipPath><clipPath id="09e107ceaf"><path d="M 80 58 L 107 58 L 107 98.890625 L 80 98.890625 Z M 80 58 " clip-rule="nonzero"/></clipPath><clipPath id="1f40baaf37"><path d="M 79 58 L 107 58 L 107 98.890625 L 79 98.890625 Z M 79 58 " clip-rule="nonzero"/></clipPath></defs><path stroke-linecap="butt" transform="matrix(0.245996, 0, 0, 0.252151, -0.0801695, 0.137298)" fill-opacity="1" fill="#cccccc" fill-rule="nonzero" stroke-linejoin="miter" d="M 337.253212 138.214489 L 340.508471 135.64287 L 342.302834 138.152522 L 342.207558 140.770617 L 339.555712 138.415881 Z M 306.145633 40.632385 L 310.353651 38.571991 L 311.465203 39.811325 L 314.005894 39.470508 L 315.784377 40.477468 L 315.895532 43.823671 L 319.849482 47.247333 L 327.455674 48.409209 L 329.567623 46.178407 L 332.394141 47.77405 L 331.933641 52.189179 L 328.884812 56.248 L 327.423915 56.093083 L 326.884019 58.757652 L 324.692673 59.315353 L 324.152776 60.957471 L 324.962621 65.109242 L 326.344122 65.1867 L 326.502915 67.014719 L 325.296087 67.975203 L 328.23376 71.104523 L 327.296881 72.126974 L 327.77326 74.140893 L 326.344122 74.683101 L 328.059088 75.612602 L 328.360795 77.518079 L 326.439398 81.29805 L 328.93245 83.265493 L 329.265916 85.806129 L 330.774451 87.262347 L 330.313951 91.98731 L 331.9654 93.877295 L 331.584296 96.046131 L 334.537849 96.185556 L 337.173815 94.574421 L 333.632728 101.096419 L 329.424709 103.637055 L 328.217881 103.280746 L 330.917365 111.274454 L 328.995968 115.999417 L 330.425106 121.963715 L 329.932847 125.557785 L 331.743089 128.144896 L 331.314348 132.88535 L 328.805416 133.303626 L 324.53388 131.800933 L 318.785568 117.935877 L 317.832809 112.172972 L 315.704981 109.446436 L 316.133722 106.952275 L 310.782393 103.946889 L 309.575565 104.05533 L 308.448133 106.81285 L 306.526736 106.62695 L 305.431064 110.809704 L 303.382632 112.746164 L 303.334994 116.076876 L 300.826062 116.774001 L 299.666872 116.913426 L 296.760957 113.660173 L 299.428682 113.148948 L 299.095217 110.716754 L 292.75937 112.870097 L 290.456869 112.281413 L 289.154765 109.245044 L 287.820903 108.65636 L 285.581919 110.267495 L 283.454091 110.112578 L 284.057505 112.002563 L 279.643055 113.071489 L 277.896331 112.358872 L 277.991607 109.368977 L 275.101571 104.984831 L 273.783588 106.115724 L 269.035673 106.332608 L 270.512449 110.546345 L 266.764931 114.031974 L 263.652585 112.34338 L 256.189307 114.543199 L 253.076961 113.334848 L 252.457667 107.928251 L 254.379065 106.441049 L 257.157945 99.90356 L 260.794308 99.036025 L 263.255602 92.761894 L 264.970568 94.527946 L 268.733966 94.853271 L 269.003914 97.889641 L 276.51483 93.939262 L 277.261158 89.926916 L 279.420745 87.587673 L 279.357228 82.212059 L 277.642262 82.103617 L 276.99121 79.45454 L 270.734759 76.774479 L 273.434243 75.597111 L 273.894743 76.712512 L 274.132933 75.333752 L 272.465605 69.617322 L 271.465208 68.796262 L 269.893156 70.206005 L 269.130949 68.811754 L 267.797086 68.796262 L 268.448138 64.334658 L 263.096809 64.396625 L 261.461239 60.213871 L 259.047583 58.866094 L 259.079342 56.852176 L 257.50729 57.564793 L 256.189307 54.605882 L 253.283392 54.714323 L 252.87053 58.494294 L 249.805822 61.964431 L 247.455683 62.739015 L 247.566838 57.657743 L 240.913405 55.8762 L 240.675215 54.77629 L 237.292921 53.614414 L 248.186132 50.144277 L 251.69546 44.08703 L 254.315547 45.233414 L 261.080136 44.195471 L 263.446154 47.371266 L 263.874895 51.585004 L 268.067034 52.886305 L 270.147225 50.082311 L 278.483865 51.523037 L 284.835591 48.765518 L 287.868541 50.082311 L 290.313955 45.403823 L 293.966198 44.861614 L 295.633526 42.506878 L 297.936027 42.770237 L 302.842735 37.64249 L 305.113477 38.122732 Z M 306.145633 40.632385 " stroke="#ffffff" stroke-width="0.5" stroke-opacity="1" stroke-miterlimit="4"/><path stroke-linecap="butt" transform="matrix(0.245996, 0, 0, 0.252151, -0.0801695, 0.137298)" fill-opacity="1" fill="#cccccc" fill-rule="nonzero" stroke-linejoin="miter" d="M 456.808577 110.701262 L 453.124576 102.754029 L 453.791507 99.361351 L 452.632317 96.898173 L 457.459629 92.219685 L 457.253198 90.809942 L 460.079716 89.632575 L 458.110681 84.659745 L 461.969355 83.947127 L 462.001113 85.124495 L 464.128942 85.201954 L 466.415563 87.432756 L 468.860978 86.983497 L 469.909012 89.86495 L 473.656531 91.863377 L 478.658515 91.692968 L 476.641842 103.466646 L 473.084875 108.269068 L 469.877254 110.933637 L 462.413976 114.295332 Z M 479.48424 82.165584 L 479.722429 80.616416 L 482.612465 78.989789 L 481.421516 78.308155 L 481.659706 76.805462 L 483.755775 74.791543 L 485.931242 75.922436 L 487.090432 73.428275 L 488.868915 74.373268 L 494.204365 73.614175 L 490.266295 75.953419 L 492.425882 78.277172 L 489.043587 78.912331 L 484.406827 82.661318 L 484.057482 81.127641 Z M 479.48424 82.165584 " stroke="#ffffff" stroke-width="0.5" stroke-opacity="1" stroke-miterlimit="4"/><path stroke-linecap="butt" transform="matrix(0.245996, 0, 0, 0.252151, -0.0801695, 0.137298)" fill-opacity="1" fill="#cccccc" fill-rule="nonzero" stroke-linejoin="miter" d="M 456.808577 110.701262 L 454.236128 111.925105 L 452.394128 109.384469 L 450.93323 109.725286 L 447.789126 107.308584 L 445.534263 108.501443 L 442.83478 108.28456 L 438.499727 105.898841 L 440.992779 102.785012 L 439.087261 97.05309 L 442.279004 94.775813 L 440.786348 92.668944 L 438.595002 93.350578 L 437.72164 91.785918 L 438.737916 90.097325 L 437.197623 90.624042 L 436.578329 88.796024 L 439.484244 88.30029 L 441.866141 81.85575 L 446.614057 81.003708 L 451.473127 82.243042 L 460.857803 79.702406 L 463.843114 80.988216 L 466.25677 80.616416 L 469.210323 78.494055 L 469.686702 74.326793 L 472.036841 74.930968 L 482.564827 70.422889 L 481.913775 68.842737 L 482.914172 67.556928 L 491.219054 69.539863 L 495.776417 72.312874 L 494.220244 73.645159 L 488.884794 74.38876 L 487.106311 73.443767 L 485.947121 75.922436 L 483.755775 74.791543 L 481.659706 76.805462 L 481.421516 78.308155 L 482.612465 78.989789 L 479.722429 80.616416 L 479.48424 82.165584 L 478.150377 87.231364 L 478.642636 91.677477 L 473.640652 91.863377 L 469.909012 89.849458 L 468.860978 86.968005 L 466.415563 87.432756 L 464.113062 85.186462 L 461.985234 85.109003 L 461.953475 83.931636 L 458.094802 84.644253 L 460.063837 89.632575 L 457.253198 90.794451 L 457.459629 92.204194 L 452.632317 96.898173 L 453.791507 99.361351 L 453.124576 102.754029 Z M 456.808577 110.701262 " stroke="#ffffff" stroke-width="0.5" stroke-opacity="1" stroke-miterlimit="4"/><path stroke-linecap="butt" transform="matrix(0.245996, 0, 0, 0.252151, -0.0801695, 0.137298)" fill-opacity="1" fill="#cccccc" fill-rule="nonzero" stroke-linejoin="miter" d="M 153.243705 179.654738 L 154.926912 180.289897 L 153.164308 181.901032 L 152.148032 181.110956 Z M 159.103172 176.463452 L 159.595431 178.864662 L 157.086499 180.274405 L 156.467206 177.176069 L 158.356844 176.72681 Z M 216.173432 96.712273 L 212.72762 102.366737 L 206.360015 104.365164 L 203.882842 108.160626 L 197.134133 110.484378 L 196.975339 113.086981 L 189.686734 117.362685 L 186.74906 117.703502 L 188.638699 122.831249 L 190.099596 122.025681 L 191.8622 123.714275 L 193.656562 127.742112 L 192.497372 127.974487 L 192.640286 129.027922 L 196.49896 128.594155 L 199.134926 125.867619 L 199.134926 124.349434 L 201.183358 124.953609 L 201.405668 123.218541 L 205.026152 122.986166 L 205.407256 126.177452 L 207.884429 127.014003 L 204.994394 130.375698 L 201.627979 129.895456 L 200.167082 132.281175 L 198.293323 132.88535 L 197.769305 133.923293 L 200.087685 136.309012 L 195.403287 137.362447 L 192.941993 135.859753 L 190.845924 136.696304 L 193.48189 142.521177 L 199.293719 140.817092 L 200.43703 145.975822 L 204.946756 143.853461 L 203.136514 139.314398 L 209.774068 135.704837 L 212.26712 131.367166 L 211.457275 128.82653 L 214.553742 128.903988 L 216.776846 127.416787 L 219.063467 128.903988 L 219.905071 131.398149 L 224.017814 129.678572 L 227.987642 131.119299 L 229.845522 127.26187 L 231.703402 127.246378 L 231.433454 122.025681 L 228.321108 120.693397 L 227.241315 115.255816 L 224.383038 115.333275 L 221.254813 111.956088 L 220.984864 107.959234 L 219.142864 106.022774 L 228.97216 104.566556 L 233.243696 102.39772 L 239.754215 109.276027 L 242.977716 109.368977 L 245.407251 107.602926 L 246.915786 109.957661 L 249.15477 107.509975 L 250.822098 108.919719 L 252.489426 107.928251 L 253.108719 113.334848 L 258.364773 124.163534 L 259.254014 130.344715 L 260.953101 132.823384 L 260.50848 135.162628 L 257.983669 137.099088 L 259.82567 143.094369 L 258.174221 151.320452 L 261.44536 154.976489 L 262.525153 159.252193 L 265.637499 158.446626 L 266.749051 159.716944 L 269.79788 159.77891 L 269.416776 164.256006 L 268.559293 166.827626 L 266.685534 168.25286 L 266.383827 170.778004 L 264.255999 173.736916 L 261.143653 173.798882 L 257.936031 177.114102 L 260.000342 179.48433 L 256.506893 183.852984 L 256.665686 185.913378 L 258.269497 187.385087 L 258.333014 191.165058 L 268.654569 198.972865 L 272.402088 204.255529 L 273.910622 204.90618 L 278.84909 202.133169 L 282.517211 202.427511 L 287.979696 202.566936 L 289.7423 205.231505 L 292.394146 205.866664 L 295.617647 208.841067 L 301.492993 205.897647 L 307.257185 207.586241 L 308.241702 205.804697 L 310.925307 206.997557 L 312.195652 209.042459 L 314.08529 209.243851 L 321.310379 203.821762 L 325.677191 202.427511 L 329.234157 205.510355 L 329.440588 206.811657 L 331.870124 204.983638 L 335.077745 205.432897 L 336.332211 205.727239 L 336.411608 207.044032 L 335.141263 209.166392 L 335.44297 212.295712 L 336.665677 213.627997 L 336.36397 216.834775 L 337.316729 217.593867 L 336.967384 221.776621 L 333.680366 222.256863 L 329.821692 221.017529 L 329.821692 221.94703 L 329.583502 224.441191 L 331.330227 228.76337 L 329.774054 228.500011 L 329.154761 230.312538 L 326.137691 232.605307 L 324.692673 239.483614 L 325.47076 242.163675 L 323.247655 245.292994 L 318.563257 247.291421 L 316.975326 249.754599 L 310.750634 252.961377 L 300.317924 254.820379 L 299.508079 252.651543 L 293.140473 251.567126 L 291.457266 249.67714 L 277.626382 246.470362 L 270.909432 250.993933 L 272.227415 253.983828 L 271.766915 255.734388 L 268.067034 257.299048 L 265.637499 260.335418 L 259.254014 263.21687 L 255.014237 262.876053 L 237.56287 275.253907 L 225.478711 269.336085 L 223.112693 271.22607 L 221.191295 276.013 L 218.666484 274.959565 L 212.870534 276.446767 L 212.203603 278.22831 L 215.839966 280.428129 L 213.632741 282.627948 L 206.725239 284.068674 L 205.597808 281.233696 L 203.23179 282.906798 L 200.071806 281.016813 L 194.783994 282.984257 L 188.670457 288.034545 L 183.446163 289.258388 L 182.525162 287.89512 L 182.795111 283.263107 L 181.032507 285.1376 L 176.284591 286.485377 L 176.332229 290.373789 L 174.91897 292.04689 L 170.774469 292.155332 L 170.425124 286.733244 L 171.806624 285.943168 L 169.964624 285.710793 L 169.027744 282.534998 L 166.995192 282.504014 L 169.170658 275.222924 L 166.852278 271.644345 L 167.169864 270.405011 L 170.790348 270.219111 L 172.219487 267.8179 L 171.123814 261.404344 L 172.743504 261.110002 L 172.283004 259.793209 L 173.807418 258.786249 L 174.521987 255.362588 L 172.886418 248.205431 L 175.474746 246.997079 L 178.904678 242.163675 L 181.683559 243.108667 L 184.224249 240.73844 L 183.065059 234.572751 L 183.207973 232.156048 L 185.383439 231.040647 L 184.287766 228.469028 L 187.606543 228.345094 L 189.115078 231.536381 L 191.751045 228.267636 L 190.782406 228.190178 L 192.227424 221.575229 L 189.829647 219.840161 L 187.606543 219.902128 L 188.098802 217.237558 L 182.493404 216.292566 L 180.984869 214.247664 L 181.953507 208.143941 L 180.206782 205.386422 L 182.096421 203.357011 L 181.6518 201.420551 L 184.160732 196.943455 L 184.271887 195.998463 L 185.716905 193.721185 L 181.762955 189.848265 L 183.620835 187.803363 L 185.542232 188.593439 L 184.90706 189.925723 L 188.336992 189.383514 L 189.480303 187.756888 L 188.400509 182.753075 L 184.922939 181.684148 L 178.666489 182.474224 L 176.125798 180.894073 L 172.886418 180.925056 L 172.076573 179.701213 L 170.425124 180.863089 L 169.234175 179.918097 L 166.423537 180.382847 L 169.043624 178.632287 L 168.678399 176.153618 L 169.694676 174.821333 L 168.408451 172.962332 L 169.472365 169.244328 L 167.376296 167.803601 L 169.916986 167.214918 L 172.822901 163.729289 L 170.202814 159.345143 L 162.040846 163.450439 L 153.672446 165.386899 L 147.717703 165.092557 L 146.510875 164.736248 L 144.367167 159.453585 L 145.494599 154.52723 L 152.672049 149.043175 L 151.354066 145.68148 L 152.703808 143.760511 L 151.306428 141.684626 L 146.447358 139.159482 L 144.875306 140.228408 L 144.176616 138.570798 L 146.383841 136.061145 L 145.034099 135.534428 L 132.505319 139.14399 L 131.536681 138.353914 L 123.025368 143.806986 L 125.9948 134.682386 L 122.390195 127.881537 L 123.755816 126.177452 L 125.343748 130.995365 L 131.568439 127.230887 L 133.108733 124.287467 L 134.617268 123.6678 L 135.077768 124.938118 L 136.935648 124.845168 L 138.301269 126.270402 L 140.508494 122.490432 L 144.224254 122.056665 L 147.384237 115.906467 L 148.924531 115.1009 L 149.083324 112.792639 L 151.703411 111.832155 L 153.11667 113.985499 L 154.911033 112.761656 L 161.92969 111.78568 L 160.294121 109.446436 L 161.199242 107.448009 L 163.724053 106.441049 L 163.08888 102.630096 L 168.726037 102.335754 L 169.345331 103.621563 L 179.206385 104.442622 L 183.589077 103.853939 L 186.52675 100.290852 L 192.3227 98.354391 L 207.725636 100.926011 Z M 170.313969 173.752407 L 170.377486 175.549442 L 172.457676 174.526991 L 172.584711 172.776431 L 171.346124 173.210198 Z M 234.132937 127.695637 L 232.513247 128.284321 L 231.973351 130.205289 L 233.942386 130.236273 L 234.625196 128.454729 Z M 216.173432 96.712273 L 212.124206 96.696781 L 215.395345 92.126735 L 218.047191 95.256055 Z M 185.145249 73.180408 L 192.243303 75.070394 L 191.512855 78.385613 L 189.06744 78.246188 L 186.812578 75.426702 L 184.811784 74.85351 Z M 185.145249 73.180408 " stroke="#ffffff" stroke-width="0.5" stroke-opacity="1" stroke-miterlimit="4"/><path stroke-linecap="butt" transform="matrix(0.245996, 0, 0, 0.252151, -0.0801695, 0.137298)" fill-opacity="1" fill="#cccccc" fill-rule="nonzero" stroke-linejoin="miter" d="M 268.702207 72.700166 L 269.924914 70.144039 L 269.162707 68.749787 L 267.828845 68.718804 L 268.495776 64.272691 L 263.144447 64.334658 L 261.508877 60.151904 L 259.095221 58.788636 L 259.12698 56.774717 L 257.539048 57.502826 L 256.236944 54.528423 L 253.33103 54.652357 L 252.902288 58.432327 L 249.85346 61.902464 L 247.503321 62.677048 L 247.614476 57.595776 L 240.961043 55.814233 L 240.722853 54.714323 L 237.32468 53.552447 L 234.704593 55.055141 L 231.973351 54.884732 L 226.447349 49.230268 L 224.256003 49.71051 L 224.541831 53.474989 L 220.905468 57.564793 L 219.69864 52.994747 L 217.777243 52.684913 L 215.919363 48.533142 L 208.154377 53.676381 L 208.503722 55.845216 L 210.822102 54.574898 L 212.362396 55.690299 L 211.314361 58.602736 L 208.726033 58.525277 L 207.947946 57.44086 L 209.519999 61.081405 L 212.711741 61.855989 L 213.346914 63.15729 L 212.092448 66.580952 L 212.50531 69.075113 L 207.074584 69.617322 L 202.644255 71.429848 L 200.643461 69.121588 L 198.737943 69.69478 L 197.642271 72.250907 L 199.881254 72.173449 L 201.627979 74.140893 L 202.326669 75.705552 L 201.516824 77.967338 L 197.483477 79.113723 L 192.656166 78.525039 L 193.2437 80.647399 L 196.73715 82.475417 L 196.356046 85.186462 L 199.611306 85.372362 L 200.595823 80.926249 L 205.169066 81.050183 L 205.486652 83.265493 L 208.646636 84.303436 L 210.901499 83.559835 L 212.537068 80.600924 L 211.80662 78.912331 L 219.174622 78.230697 L 217.586691 76.913904 L 217.554932 73.862042 L 219.476329 75.426702 L 223.954296 74.605643 L 225.081728 68.563887 L 222.414003 67.216111 L 222.826865 63.389665 L 227.320711 64.783917 L 229.400901 63.854416 L 228.416384 62.97139 L 229.178591 62.165822 L 230.798281 61.979922 L 231.306419 64.272691 L 235.482679 65.403584 L 236.594231 67.107669 L 235.212731 70.314447 L 233.497765 71.243948 L 232.67204 77.347671 L 230.258384 79.144706 L 226.272676 79.129214 L 226.352073 84.628761 L 227.463625 85.062528 L 227.781211 87.711606 L 235.292127 86.673663 L 239.18256 87.448247 L 241.04044 91.119776 L 244.676803 93.36607 L 248.106735 92.668944 L 249.361201 88.780532 L 252.695857 88.253815 L 254.220271 86.239896 L 259.460445 84.427369 L 258.237738 82.010667 L 260.079739 79.996748 L 263.54143 81.452966 L 270.766518 76.69702 Z M 268.702207 72.700166 " stroke="#ffffff" stroke-width="0.5" stroke-opacity="1" stroke-miterlimit="4"/><path stroke-linecap="butt" transform="matrix(0.245996, 0, 0, 0.252151, -0.0801695, 0.137298)" fill-opacity="1" fill="#cccccc" fill-rule="nonzero" stroke-linejoin="miter" d="M 232.338575 43.265971 L 231.465212 44.350388 L 233.672437 47.076924 L 233.354851 48.409209 L 232.926109 47.572658 L 232.195661 48.688059 L 226.447349 49.230268 L 224.256003 49.71051 L 224.541831 53.474989 L 220.905468 57.564793 L 219.69864 52.994747 L 217.777243 52.684913 L 215.919363 48.533142 L 217.205587 46.147423 L 219.523967 46.472749 L 220.413209 43.467362 L 224.287762 46.11644 L 228.146436 42.553353 L 231.719281 43.296954 L 234.228213 41.484427 Z M 232.338575 43.265971 " stroke="#ffffff" stroke-width="0.5" stroke-opacity="1" stroke-miterlimit="4"/><path stroke-linecap="butt" transform="matrix(0.245996, 0, 0, 0.252151, -0.0801695, 0.137298)" fill-opacity="1" fill="#cccccc" fill-rule="nonzero" stroke-linejoin="miter" d="M 110.433071 209.445242 L 110.703019 209.724093 L 112.084519 210.080401 L 110.845933 214.278647 L 110.036088 215.285607 L 108.845139 215.967241 L 106.987259 213.178738 L 110.274277 209.305817 Z M 120.738746 204.828721 L 121.10397 204.875196 L 121.564471 206.083547 L 122.167885 207.105998 L 125.026161 209.801551 L 123.009488 213.922339 L 122.564867 214.511022 L 117.753435 212.497104 L 115.244503 214.092747 L 112.386226 213.953322 L 113.037278 212.404154 L 115.355658 212.140795 L 116.181383 211.923912 L 120.516436 204.81323 Z M 122.850695 178.353437 L 126.9158 183.527659 L 130.266335 185.882394 L 126.645852 187.725904 L 129.23418 186.966812 L 131.504922 189.553923 L 127.916197 194.666178 L 128.853076 197.485664 L 128.07499 198.802457 L 129.027749 199.282699 L 130.15518 197.780006 L 131.616077 198.83344 L 128.916594 203.883729 L 128.678404 203.078161 L 124.470385 204.487904 L 121.882057 202.195135 L 117.277055 205.123063 L 114.529934 202.644394 L 113.624813 203.15562 L 111.338191 201.157193 L 110.845933 201.947268 L 111.84633 199.220732 L 111.036484 199.716466 L 106.129776 194.402819 L 111.258795 189.414498 Z M 171.346124 173.194707 L 172.584711 172.776431 L 172.457676 174.526991 L 170.377486 175.533951 L 170.313969 173.752407 Z M 147.606548 164.984115 L 153.57717 165.293949 L 161.92969 163.357489 L 170.091658 159.267685 L 172.711745 163.636339 L 169.805831 167.137459 L 167.26514 167.726143 L 169.377089 169.166869 L 168.297296 172.884873 L 169.5994 174.728383 L 168.567244 176.07616 L 168.932468 178.554829 L 166.312381 180.305389 L 169.12302 179.825147 L 170.313969 180.770139 L 171.965418 179.608263 L 172.775263 180.832106 L 176.014643 180.816614 L 178.555334 182.381274 L 184.811784 181.591198 L 188.289354 182.675616 L 189.369147 187.663938 L 188.225837 189.306056 L 184.795904 189.832773 L 185.446956 188.51598 L 183.50968 187.725904 L 181.667679 189.770806 L 185.60575 193.643727 L 184.160732 195.921004 L 184.049577 196.865997 L 181.540645 201.343093 L 181.985266 203.279553 L 180.111506 205.293472 L 181.842352 208.066483 L 180.889593 214.170205 L 182.382249 216.215107 L 188.003526 217.144608 L 187.495388 219.824669 L 189.734372 219.762703 L 192.132148 221.482279 L 190.687131 228.112719 L 191.655769 228.190178 L 189.019802 231.458922 L 187.495388 228.267636 L 184.192491 228.391569 L 185.272284 230.963189 L 183.112697 232.07859 L 182.953904 234.495292 L 184.113094 240.660982 L 181.572403 243.031209 L 178.809403 242.086216 L 175.363591 246.919621 L 172.791142 248.127972 L 168.964227 252.310726 L 166.852278 249.568699 L 162.86657 253.007852 L 160.78638 253.069819 L 157.435844 259.034116 L 154.339378 261.233935 L 149.019807 261.140985 L 143.684357 266.330698 L 143.255615 268.933301 L 138.587097 270.823286 L 139.682769 268.762893 L 137.983683 266.470124 L 138.221872 263.480229 L 136.967407 260.304434 L 134.617268 258.275024 L 132.092457 258.383466 L 128.805438 256.059713 L 126.725248 257.066673 L 126.947559 254.541529 L 122.26316 259.793209 L 120.262367 259.793209 L 115.3239 253.612028 L 117.245297 250.048941 L 117.959866 251.195325 L 121.310402 250.482708 L 122.120247 252.589577 L 126.487058 246.842163 L 127.61449 246.563312 L 127.074593 244.704311 L 125.216713 246.423887 L 123.851092 245.80422 L 122.723661 243.294567 L 122.406074 243.077684 L 120.167091 242.070725 L 118.356849 243.619893 L 115.832038 241.636957 L 115.689124 243.108667 L 113.22783 243.681859 L 114.402899 237.283795 L 113.751847 229.367545 L 116.419572 229.615412 L 118.436245 226.780435 L 121.135729 228.174686 L 123.057126 227.167727 L 123.581144 224.642582 L 122.406074 223.155381 L 126.280627 220.273928 L 126.772886 218.290993 L 132.124215 213.085788 L 132.902302 210.916952 L 131.504922 208.934017 L 130.091663 209.507209 L 128.503731 208.252383 L 129.313577 207.183457 L 130.107542 207.803124 L 133.124612 203.06267 L 135.125406 202.350052 L 136.443389 199.422124 L 135.046009 197.020914 L 136.046406 194.526753 L 138.904683 195.642154 L 139.936839 193.457827 L 138.666493 192.264967 L 139.587494 190.158098 L 137.920165 190.932683 L 137.427907 189.491956 L 139.4287 185.495102 L 138.28539 183.837492 L 137.34851 182.753075 L 135.284199 183.914951 L 136.252837 186.920337 L 132.616474 182.195374 L 130.869749 181.668657 L 131.536681 180.367356 L 127.011076 175.224117 L 131.425525 169.863995 L 136.205199 175.425509 L 139.142873 176.401485 L 138.412424 178.446387 L 142.302856 182.412258 L 140.095632 184.441668 L 140.857839 185.340185 L 142.096425 185.572561 L 143.176219 184.100851 L 145.780427 185.572561 L 144.970581 186.966812 L 146.272685 188.159672 L 144.954702 190.065148 L 145.843944 190.963666 L 150.480704 185.742969 L 149.242117 183.527659 L 152.163911 181.126448 L 153.164308 181.916524 L 154.942792 180.305389 L 153.243705 179.685722 L 148.7181 172.637006 L 149.527945 166.378367 Z M 156.467206 177.176069 L 157.086499 180.274405 L 159.595431 178.864662 L 159.103172 176.463452 L 158.356844 176.72681 Z M 156.467206 177.176069 " stroke="#ffffff" stroke-width="0.5" stroke-opacity="1" stroke-miterlimit="4"/><path stroke-linecap="butt" transform="matrix(0.245996, 0, 0, 0.252151, -0.0801695, 0.137298)" fill-opacity="1" fill="#cccccc" fill-rule="nonzero" stroke-linejoin="miter" d="M 22.795129 294.324168 L 25.256423 297.066195 L 32.783218 300.861657 L 35.657374 295.517027 L 39.357255 297.143654 L 39.960669 299.699781 L 37.959875 302.255909 L 41.072221 307.290705 L 43.501756 307.275214 L 45.820136 304.874003 L 45.978929 306.59358 L 47.662137 306.376696 L 47.693895 308.71594 L 45.756619 312.387469 L 39.373134 316.291373 L 37.229427 316.136456 L 31.163528 321.140269 L 31.369959 323.603446 L 23.22387 328.963568 L 18.682386 328.405868 L 18.396558 326.655308 L 12.902315 326.624324 L 10.790366 329.893069 L 9.726452 328.746685 L 5.073813 327.987592 L 0.167104 331.147896 L 3.549399 322.457062 L 4.200451 323.169679 L 5.169089 320.845927 L 1.119863 317.902508 L 3.200054 313.998604 L 4.819744 314.323929 L 4.597433 312.945169 L 5.883658 313.456395 L 10.377504 309.722899 L 12.203625 311.055184 L 14.125023 308.406107 L 15.554161 309.056757 L 17.523196 307.972339 L 19.873335 309.738391 L 22.668094 307.306197 L 19.666904 300.675757 L 22.096439 298.754789 Z M 30.099614 288.189462 L 30.448959 289.335846 L 28.622838 289.475271 L 29.432683 288.282412 L 29.4962 287.972578 L 29.797907 287.926103 Z M 37.324702 291.876482 L 32.497391 289.568221 L 29.067458 286.407918 L 30.385442 285.1376 L 38.54741 289.335846 Z M 37.324702 291.876482 " stroke="#ffffff" stroke-width="0.5" stroke-opacity="1" stroke-miterlimit="4"/><path stroke-linecap="butt" transform="matrix(0.245996, 0, 0, 0.252151, -0.0801695, 0.137298)" fill-opacity="1" fill="#cccccc" fill-rule="nonzero" stroke-linejoin="miter" d="M 411.568408 126.223927 L 420.000324 135.023203 L 429.019775 134.728861 L 436.403657 136.092129 L 436.308381 147.24614 L 434.402863 150.127592 L 429.60731 152.885112 L 435.228588 155.441239 L 438.960227 153.504779 L 443.374676 157.083358 L 444.502108 161.235128 L 442.548952 171.041363 L 444.45447 173.535524 L 444.21628 176.974677 L 441.326245 178.973104 L 438.102744 183.620609 L 435.943157 184.720518 L 431.322276 184.255768 L 431.830414 185.324694 L 429.623189 187.756888 L 425.748636 190.049657 L 423.462015 185.820428 L 419.015807 185.185269 L 416.85622 186.873862 L 416.887978 190.096132 L 411.806597 197.718039 L 400.945146 200.584 L 399.293697 200.072775 L 399.007869 197.594106 L 394.101161 197.315256 L 394.656937 194.387328 L 393.402471 191.583333 L 404.835578 184.766993 L 404.343319 179.964572 L 401.945543 176.200093 L 405.804216 174.666417 L 404.724423 172.528564 L 406.772854 168.299335 L 403.342922 166.796642 L 401.53268 163.791256 L 402.755388 162.737821 L 399.897111 160.197186 L 398.690283 157.114341 L 396.340144 155.875006 L 397.753403 155.162389 L 397.674007 152.978062 L 400.38937 152.978062 L 403.914578 150.793735 L 407.471544 143.667561 L 404.645026 142.412735 L 406.899889 140.042507 L 406.439389 133.675426 Z M 411.568408 126.223927 " stroke="#ffffff" stroke-width="0.5" stroke-opacity="1" stroke-miterlimit="4"/><g clip-path="url(#5a8c937f6b)"><path fill="#cccccc" d="M 119.339844 37.785156 L 119.535156 38.167969 L 121.019531 37.527344 L 121.992188 38.054688 L 122.371094 37.648438 L 123.546875 37.496094 L 123.84375 37.859375 L 124.484375 37.945312 L 124.820312 38.441406 L 125.917969 38.789062 L 126.953125 38.710938 L 128.742188 39.976562 L 129.535156 39.46875 L 130.152344 39.589844 L 129.902344 40.125 L 130.480469 40.609375 L 130.59375 41.148438 L 129.886719 42.425781 L 130.144531 42.714844 L 130.0625 43.839844 L 132.125 44.941406 L 133.398438 44.808594 L 133.835938 45.488281 L 134.773438 45.53125 L 135.878906 46.800781 L 135.988281 47.492188 L 137.054688 47.527344 L 137.683594 48.515625 L 138.253906 48.167969 L 139.777344 48.054688 L 140.605469 47.257812 L 141.835938 47.265625 L 141.957031 46.355469 L 141.65625 45.746094 L 142.203125 44.007812 L 144.015625 44.585938 L 144.640625 44.3125 L 144.375 43.203125 L 145.011719 42.890625 L 145.671875 41.097656 L 146.488281 41.042969 L 146.949219 40.578125 L 147.378906 40.738281 L 148.320312 41.78125 L 148.320312 42.671875 L 149.261719 42.898438 L 150.390625 43.644531 L 149.9375 45.945312 L 149.589844 46.3125 L 149.773438 48.125 L 149.304688 49.101562 L 149.296875 49.832031 L 148.769531 50.765625 L 148.101562 51.003906 L 148.761719 51.917969 L 148.894531 52.691406 L 147.476562 53.84375 L 148.015625 54.597656 L 147.960938 55.007812 L 146.96875 56.277344 L 147.511719 58.699219 L 148.988281 58.488281 L 150.460938 59.847656 L 149.890625 63.238281 L 149.472656 63.367188 L 149.21875 63.832031 L 148.003906 62.84375 L 147.292969 63.164062 L 145.851562 62.582031 L 145.425781 63.253906 L 145.011719 62.839844 L 144.480469 63.035156 L 143.976562 62.863281 L 143.664062 61.832031 L 143.042969 61.519531 L 142.5625 61.804688 L 142.316406 61.566406 L 142.152344 60.835938 L 142.742188 59.875 L 142.09375 58.710938 L 141.261719 59.523438 L 140.414062 59.097656 L 138.453125 60.125 L 137.535156 59.882812 L 137.484375 61.3125 L 136.832031 61.648438 L 136.855469 62.246094 L 135.621094 63.382812 L 135.949219 64.367188 L 135.550781 64.964844 L 135.742188 65.375 L 135.558594 66.363281 L 135.925781 67.054688 L 135.464844 68.042969 L 136.039062 68.292969 L 136.191406 68.921875 L 136.699219 68.875 L 136.832031 69.210938 L 137.417969 69.226562 L 138.445312 68.726562 L 138.898438 68.886719 L 139.085938 69.671875 L 139.453125 69.46875 L 139.644531 69.722656 L 139.542969 70.796875 L 138.8125 70.933594 L 138.410156 71.34375 L 138.425781 72.148438 L 137.722656 72.601562 L 137.636719 73.601562 L 138.011719 74.503906 L 139.296875 75.582031 L 140.003906 77.320312 L 138.613281 78.8125 L 137.164062 78.699219 L 136.480469 79.210938 L 135.648438 78.617188 L 136.152344 77.675781 L 135.980469 76.894531 L 134.167969 76.023438 L 133.949219 75.660156 L 134.195312 74.507812 L 133.519531 74.066406 L 134.023438 72.644531 L 132.960938 72.039062 L 132.691406 71.332031 L 131.917969 71.542969 L 131.660156 71.945312 L 131.039062 71.214844 L 129.90625 72.0625 L 128.734375 72.121094 L 126.75 73.453125 L 125.6875 72.660156 L 125.386719 72.726562 L 124.992188 73.085938 L 124.757812 74.011719 L 125.011719 74.480469 L 124.617188 75.503906 L 123.792969 75.488281 L 123.308594 75.0625 L 121.921875 75.867188 L 121.066406 75.4375 L 120.242188 75.417969 L 119.414062 74.835938 L 119.101562 75.074219 L 118.128906 73.863281 L 117.484375 71.882812 L 116.277344 71.503906 L 116.445312 70.5625 L 116.003906 69.230469 L 116.34375 66.386719 L 115.707031 65.996094 L 116.15625 65.824219 L 116.296875 64.847656 L 115.375 65.332031 L 114.558594 66.929688 L 113.339844 66.058594 L 113.132812 65.566406 L 113.332031 65.144531 L 112.941406 64.871094 L 110.117188 65.511719 L 109.976562 67.441406 L 109.140625 67.882812 L 109.109375 68.199219 L 109.289062 68.84375 L 110.183594 69.578125 L 110.085938 70.605469 L 110.316406 70.949219 L 110.011719 71.726562 L 110.714844 72.523438 L 110.582031 73.457031 L 110.785156 73.886719 L 110.273438 74.554688 L 110.335938 75.292969 L 109.269531 76.785156 L 109.148438 78.398438 L 108.214844 78.46875 L 108.152344 79.308594 L 107.558594 79.78125 L 107.335938 81.050781 L 106.886719 81.59375 L 106.285156 81.589844 L 105.507812 81.089844 L 104.835938 80.011719 L 103.859375 79.414062 L 103.519531 77.125 L 102.757812 75.652344 L 103.46875 74.574219 L 103.101562 73.925781 L 103.1875 73.425781 L 103.320312 73.070312 L 103.90625 72.816406 L 104.136719 71.628906 L 103.945312 70.042969 L 104.386719 69.734375 L 103.933594 68.695312 L 104.121094 67.316406 L 103.773438 66.578125 L 102.597656 66.382812 L 101.734375 64.84375 L 101.617188 62.957031 L 102.386719 61.050781 L 102.074219 60.421875 L 101.105469 59.855469 L 99.695312 60.28125 L 99.386719 58.832031 L 99.023438 59.503906 L 98.394531 59.273438 L 97.832031 59.675781 L 98.167969 60.585938 L 97.980469 60.988281 L 95.792969 62.1875 L 95.386719 62.257812 L 95.28125 61.824219 L 94.3125 62.179688 L 92.703125 61.589844 L 92.292969 61.769531 L 91.914062 61.535156 L 91.515625 61.824219 L 90.917969 61.324219 L 90.277344 61.421875 L 90.277344 59.59375 L 89.375 58.695312 L 89.476562 57.9375 L 90.269531 57.1875 L 90.140625 55.816406 L 90.847656 55.3125 L 91.277344 55.511719 L 92.539062 54.597656 L 92.585938 53.691406 L 93.121094 53.277344 L 93.707031 54.082031 L 94.726562 53.644531 L 94.921875 52.386719 L 95.433594 52.179688 L 95.242188 50.941406 L 95.804688 50.851562 L 96.867188 49.890625 L 98.074219 49.960938 L 98.144531 50.585938 L 98.550781 50.714844 L 101.222656 49.992188 L 102.472656 48.070312 L 102.464844 47.257812 L 102.996094 46.832031 L 104.089844 46.992188 L 104.652344 48.058594 L 105.605469 47.480469 L 106.148438 46.867188 L 106.023438 46.597656 L 107.160156 46.714844 L 107.691406 46.4375 L 108.484375 45.265625 L 109.195312 44.761719 L 109.796875 45.410156 L 111.183594 45.261719 L 111.460938 45.507812 L 114.542969 45.929688 L 115.84375 46.890625 L 116.023438 46.242188 L 116.488281 46.105469 L 116.460938 45.53125 L 117.136719 44.914062 L 116.835938 44.75 L 116.875 44.253906 L 117.691406 42.839844 L 118.152344 42.691406 L 118.183594 41.972656 L 119.042969 41.703125 L 116.753906 37.964844 L 116.960938 37.789062 L 117.09375 38.144531 L 117.324219 37.78125 L 118.847656 37.363281 Z M 119.339844 37.785156 " fill-opacity="1" fill-rule="nonzero"/></g><g clip-path="url(#3978c041d7)"><path stroke-linecap="butt" transform="matrix(0.245996, 0, 0, 0.252151, -0.0801695, 0.137298)" fill="none" stroke-linejoin="miter" d="M 485.454862 149.306533 L 486.248828 150.824718 L 492.282968 148.284082 L 496.236917 150.375459 L 497.777211 148.764324 L 502.556885 148.160149 L 503.763713 149.600875 L 506.367921 149.941692 L 507.733542 151.909136 L 512.195629 153.287896 L 516.403648 152.978062 L 523.676374 157.997367 L 526.899875 155.983448 L 529.408807 156.46369 L 528.392531 158.586051 L 530.74267 160.507019 L 531.20317 162.644871 L 528.329014 167.710651 L 529.377049 168.857036 L 529.043583 173.31864 L 537.427861 177.687295 L 542.604518 177.160577 L 544.383002 179.85613 L 548.194037 180.026539 L 552.687884 185.061335 L 553.132504 187.803363 L 557.467557 187.942788 L 560.024127 191.862183 L 562.342507 190.483424 L 568.53544 190.034165 L 571.901855 186.873862 L 576.90384 186.904845 L 577.396098 183.295283 L 576.173391 180.878581 L 578.396495 173.984783 L 585.764497 176.277551 L 588.305188 175.193134 L 587.225395 170.793496 L 589.813723 169.554162 L 592.497327 162.44348 L 595.816104 162.226596 L 597.689863 160.383086 L 599.436588 161.018245 L 603.263503 165.154524 L 603.263503 168.686627 L 607.090418 169.585145 L 611.67954 172.544056 L 609.83754 181.668657 L 608.424281 183.124875 L 609.170608 190.313015 L 607.265091 194.185936 L 607.233332 197.08288 L 605.089624 200.785392 L 602.374261 201.730385 L 605.057866 205.355438 L 605.597762 208.422791 L 599.833571 212.992838 L 602.024916 215.982732 L 601.802606 217.609359 L 597.76926 222.644155 L 599.976485 232.248998 L 605.978866 231.412447 L 611.965368 236.803553 L 609.646988 250.250333 L 607.947901 250.761558 L 606.915746 252.605068 L 601.977279 248.685673 L 599.087243 249.955991 L 593.227776 247.64773 L 591.49693 250.312299 L 589.813723 248.670181 L 587.654136 249.444765 L 585.605704 248.763131 L 584.335359 244.673327 L 581.810548 243.433993 L 579.857392 244.564885 L 578.856995 243.619893 L 578.190064 240.722948 L 580.587841 236.911994 L 577.951874 232.295473 L 574.56958 235.517743 L 571.123769 233.82915 L 563.152352 237.903462 L 559.420713 236.942978 L 559.214282 242.612933 L 556.562436 243.945218 L 556.657712 246.315445 L 551.639849 250.823525 L 552.973711 254.727429 L 551.354021 257.097656 L 552.132107 258.724283 L 551.38578 262.643678 L 552.878435 265.385706 L 551.004676 269.305101 L 553.338935 270.296569 L 553.958229 272.79073 L 556.02254 272.60483 L 556.562436 273.937114 L 558.944334 273.999081 L 563.120594 272.016146 L 564.962594 272.651305 L 565.724801 275.765133 L 567.217457 274.959565 L 567.995544 275.966525 L 567.582681 280.226737 L 564.613249 280.768946 L 562.97768 282.395573 L 563.041197 285.586859 L 560.18292 287.383894 L 559.833575 291.349765 L 561.35799 294.928343 L 566.582285 299.204047 L 569.456441 306.097846 L 563.803404 312.015668 L 557.912178 311.56641 L 555.133298 313.59582 L 551.751004 311.241084 L 553.799436 307.507589 L 553.100746 304.409253 L 545.732743 300.954608 L 544.843502 299.513881 L 545.843899 294.943835 L 543.096777 293.193275 L 545.145209 287.554303 L 540.826035 285.153092 L 539.730362 282.349098 L 536.586258 283.185648 L 535.538223 284.781292 L 533.013412 281.884347 L 528.40841 285.246042 L 523.644616 285.478417 L 515.577923 290.761081 L 511.25875 287.616269 L 510.036042 287.879628 L 508.432232 289.304863 L 507.479473 292.976391 L 508.511628 294.835393 L 506.907817 298.894214 L 503.557282 298.832247 L 501.588247 297.143654 L 495.95109 300.33494 L 492.47352 298.630855 L 489.122984 298.553397 L 485.756569 296.245136 L 484.486224 297.190129 L 480.532274 292.387707 L 477.912187 284.533425 L 473.005479 283.030732 L 473.688289 279.297236 L 471.893927 274.014573 L 473.275427 262.736628 L 470.687099 261.18746 L 472.51322 260.505826 L 473.084875 256.632906 L 469.337357 258.553874 L 466.01858 264.889972 L 461.064234 261.435327 L 460.22263 259.483375 L 461.032475 257.810273 L 459.444544 256.725856 L 447.963799 259.266491 L 447.392143 266.919382 L 443.99397 268.669942 L 443.866935 269.924769 L 444.597384 272.480896 L 448.233747 275.393332 L 447.836764 279.467645 L 448.773644 280.830913 L 447.535057 283.913757 L 450.393334 287.074061 L 449.853437 290.776573 L 450.679161 292.480658 L 448.598971 295.129735 L 448.85304 298.057663 L 444.517987 303.975486 L 444.025728 310.37355 L 440.230572 310.6524 L 439.976503 313.983112 L 437.562847 315.857606 L 436.657726 320.892402 L 434.831605 323.045746 L 432.38619 323.030254 L 429.226206 321.047319 L 426.494964 316.771615 L 422.525135 314.401387 L 421.143635 305.323262 L 418.047168 299.482898 L 420.937204 295.207194 L 419.444548 292.635574 L 419.793893 290.652639 L 420.33379 289.242896 L 422.715687 288.235937 L 423.652567 283.526465 L 422.87448 277.236843 L 424.668843 276.013 L 422.826842 271.892212 L 423.589049 266.423649 L 422.17579 263.495721 L 417.396116 262.721137 L 413.886788 256.617414 L 413.410408 249.134932 L 416.538633 241.574991 L 415.268288 239.08083 L 411.330218 236.834536 L 405.597785 238.523129 L 404.343319 232.775715 L 402.866543 235.440285 L 400.309973 234.526275 L 398.023352 236.121919 L 399.388973 239.731481 L 398.626766 241.327124 L 389.734349 246.08307 L 388.0829 246.36192 L 387.654159 244.642344 L 383.716088 246.052087 L 377.17381 243.712843 L 375.506482 244.42546 L 373.966189 243.495959 L 372.346499 244.642344 L 369.916963 242.659408 L 367.312756 243.046701 L 367.312756 235.796593 L 363.644634 232.233507 L 364.057496 229.22812 L 367.280997 226.253717 L 366.75698 220.816137 L 369.631136 218.81771 L 371.37786 219.607786 L 376.506879 215.982732 L 376.697431 212.388662 L 378.872897 210.746544 L 381.254795 213.93783 L 385.399296 212.202762 L 386.193262 207.21444 L 388.273452 206.393381 L 387.495365 201.482518 L 389.781987 201.126209 L 394.101161 197.315256 L 399.007869 197.594106 L 399.293697 200.072775 L 400.945146 200.584 L 411.806597 197.718039 L 416.887978 190.096132 L 416.85622 186.873862 L 419.015807 185.185269 L 423.462015 185.820428 L 425.748636 190.049657 L 429.623189 187.756888 L 431.830414 185.324694 L 431.322276 184.255768 L 435.943157 184.720518 L 438.102744 183.620609 L 441.326245 178.973104 L 444.21628 176.974677 L 446.661695 179.546296 L 452.298852 178.957612 L 453.426283 179.933588 L 465.955063 181.60669 L 471.242875 185.417644 L 471.973323 182.846025 L 473.862962 182.303816 L 473.751807 180.026539 L 476.498928 177.578853 L 475.276221 176.928202 L 475.435014 174.960759 L 478.753791 169.35277 L 480.62755 168.764086 L 480.754585 165.913616 L 484.248034 164.84469 L 474.942755 150.019151 L 475.784359 149.322025 L 476.324256 150.731768 L 477.261135 149.291042 L 483.454068 147.633432 Z M 485.454862 149.306533 " stroke="#ffffff" stroke-width="0.5" stroke-opacity="1" stroke-miterlimit="4"/></g><path stroke-linecap="butt" transform="matrix(0.245996, 0, 0, 0.252151, -0.0801695, 0.137298)" fill-opacity="1" fill="#cccccc" fill-rule="nonzero" stroke-linejoin="miter" d="M 145.669271 61.701072 L 151.052359 63.869908 L 156.387809 62.398198 L 158.118655 60.787063 L 163.882846 63.653024 L 168.043227 62.677048 L 165.994795 64.892359 L 163.755812 72.653691 L 167.312778 74.295809 L 172.155969 73.583192 L 173.616866 77.161771 L 178.793523 74.57466 L 185.145249 73.180408 L 184.811784 74.85351 L 186.796698 75.426702 L 189.06744 78.246188 L 191.512855 78.385613 L 192.656166 78.525039 L 193.2437 80.647399 L 196.73715 82.475417 L 196.356046 85.186462 L 199.611306 85.372362 L 203.422341 87.231364 L 211.58431 86.875055 L 211.330241 88.315782 L 213.6645 89.245282 L 213.569224 91.677477 L 215.395345 92.111244 L 212.124206 96.696781 L 216.173432 96.712273 L 207.582722 100.817569 L 192.195665 98.230458 L 186.383836 100.166918 L 183.446163 103.745497 L 179.063472 104.334181 L 169.202417 103.49763 L 168.583123 102.21182 L 162.945967 102.506162 L 163.581139 106.317116 L 161.056328 107.324075 L 160.167086 109.322502 L 161.786776 111.677238 L 154.768119 112.637722 L 152.973756 113.877057 L 151.560497 111.708221 L 148.95629 112.684197 L 148.797496 114.976966 L 147.257203 115.782534 L 144.097219 121.932731 L 140.381459 122.366498 L 138.174234 126.146469 L 136.792734 124.721234 L 134.934854 124.814184 L 134.474354 123.543866 L 132.965819 124.163534 L 131.425525 127.106953 L 125.200834 130.871432 L 123.612902 126.053519 L 122.247281 127.757604 L 121.755022 127.943504 L 119.389004 126.719661 L 123.771695 124.194517 L 124.629178 121.142656 L 134.776061 112.684197 L 133.124612 103.838447 L 140.317942 102.335754 L 142.92215 98.633242 L 142.175822 96.386948 L 147.003134 95.953181 L 149.083324 92.715419 L 147.606548 91.80141 L 147.384237 88.904465 L 143.001546 86.813088 L 140.016235 88.703074 L 130.425129 90.190275 L 127.789162 89.431183 L 124.454506 90.778959 L 125.216713 86.565222 L 129.123025 83.714752 L 129.138904 80.585432 L 132.362405 80.260107 L 132.695871 74.869002 L 135.284199 74.729577 L 136.983286 72.204432 L 141.048391 70.732723 L 138.5077 62.69254 L 143.541443 60.647638 Z M 145.669271 61.701072 " stroke="#ffffff" stroke-width="0.5" stroke-opacity="1" stroke-miterlimit="4"/><path stroke-linecap="butt" transform="matrix(0.245996, 0, 0, 0.252151, -0.0801695, 0.137298)" fill-opacity="1" fill="#cccccc" fill-rule="nonzero" stroke-linejoin="miter" d="M 253.09284 113.288373 L 256.221065 114.496724 L 263.684343 112.296905 L 266.796689 113.985499 L 270.560087 110.49987 L 269.067431 106.301624 L 273.815347 106.084741 L 275.13333 104.953848 L 278.023365 109.322502 L 277.91221 112.312397 L 279.658935 113.040506 L 284.073384 111.97158 L 283.48585 110.081595 L 285.597799 110.22102 L 287.836782 108.625377 L 289.186524 109.21406 L 290.472748 112.234938 L 292.775249 112.839114 L 299.111096 110.68577 L 299.444562 113.117964 L 296.776837 113.62919 L 299.666872 116.882443 L 300.826062 116.743018 L 303.366753 116.045892 L 303.398511 112.715181 L 305.446943 110.77872 L 306.542616 106.595966 L 308.464013 106.766375 L 309.607323 104.024347 L 310.798272 103.915905 L 316.165481 106.936783 L 315.736739 109.415452 L 317.864567 112.141988 L 318.801447 117.904894 L 324.549759 131.785441 L 328.837174 133.272642 L 331.314348 132.869859 L 332.124193 136.479421 L 336.094022 135.085169 L 336.745073 137.997605 L 332.171831 140.70865 L 328.265519 147.664415 L 329.726416 148.795308 L 335.109504 148.005232 L 344.986438 156.324265 L 344.224231 159.531043 L 338.984057 161.080212 L 339.285764 158.694493 L 333.362779 157.114341 L 333.521572 160.708411 L 327.916174 160.909803 L 327.455674 157.021391 L 325.391363 156.634099 L 320.913396 162.598396 L 318.785568 160.646444 L 314.847498 161.62242 L 311.751031 160.925295 L 309.035668 163.264539 L 306.733167 162.025204 L 305.351667 164.534857 L 306.844323 166.084025 L 303.096804 167.199426 L 301.127769 166.347383 L 296.268699 168.903511 L 297.999544 172.884873 L 294.093232 175.859276 L 290.90149 181.870049 L 290.504507 178.787204 L 288.662506 177.966145 L 285.518402 180.894073 L 284.946747 187.694921 L 281.62797 192.745209 L 284.565643 198.306723 L 282.485453 202.365544 L 278.817331 202.086694 L 273.878864 204.844213 L 272.370329 204.193562 L 268.62281 198.92639 L 258.317135 191.103091 L 258.237738 187.338612 L 256.633927 185.866903 L 256.491013 183.822001 L 259.984463 179.453346 L 257.920152 177.067627 L 261.111894 173.752407 L 264.22424 173.705932 L 266.352068 170.747021 L 266.653775 168.221877 L 268.527535 166.78115 L 269.385018 164.225023 L 269.766121 159.732435 L 266.733172 159.68596 L 265.605741 158.400151 L 262.493395 159.205718 L 261.413601 154.930014 L 258.142462 151.273977 L 259.80979 143.032402 L 257.96779 137.052613 L 260.492601 135.116153 L 260.937222 132.7924 L 259.254014 130.29824 L 258.348893 124.117058 Z M 253.09284 113.288373 " stroke="#ffffff" stroke-width="0.5" stroke-opacity="1" stroke-miterlimit="4"/><path stroke-linecap="butt" transform="matrix(0.245996, 0, 0, 0.252151, -0.0801695, 0.137298)" fill-opacity="1" fill="#cccccc" fill-rule="nonzero" stroke-linejoin="miter" d="M 122.247281 127.757604 L 125.851886 134.573944 L 122.882454 143.698544 L 131.409646 138.245472 L 132.378284 139.035548 L 144.907064 135.425986 L 146.256806 135.952703 L 144.049581 138.462356 L 144.748271 140.119966 L 146.304444 139.05104 L 151.163514 141.576184 L 152.576774 143.667561 L 151.242911 145.573038 L 152.560894 148.934733 L 145.383444 154.418788 L 144.256012 159.345143 L 146.39972 164.627807 L 141.334218 163.171589 L 131.409646 169.879487 L 126.995196 175.224117 L 122.850695 178.353437 L 111.258795 189.399006 L 107.971777 186.021819 L 104.907069 186.285178 L 105.843948 181.126448 L 102.715723 178.926629 L 103.176223 172.962332 L 93.315169 178.10557 L 90.599806 182.505208 L 86.677615 183.465692 L 84.915011 183.465692 L 76.626008 188.763847 L 70.909454 190.777766 L 67.892385 189.646873 L 68.432281 182.226357 L 64.128987 174.821333 L 72.894369 165.727716 L 73.990042 167.307868 L 91.314375 160.97177 L 94.982497 155.131406 L 102.906275 150.607835 L 99.222274 147.385565 L 101.207188 145.851888 L 100.69905 144.457637 L 103.827275 142.55216 L 105.955104 142.629618 L 105.986862 139.23694 L 114.593451 135.054186 L 121.755022 127.943504 Z M 122.247281 127.757604 " stroke="#ffffff" stroke-width="0.5" stroke-opacity="1" stroke-miterlimit="4"/><path stroke-linecap="butt" transform="matrix(0.245996, 0, 0, 0.252151, -0.0801695, 0.137298)" fill-opacity="1" fill="#cccccc" fill-rule="nonzero" stroke-linejoin="miter" d="M 306.844323 166.084025 L 305.351667 164.534857 L 306.733167 162.025204 L 309.035668 163.264539 L 311.751031 160.925295 L 314.847498 161.62242 L 318.785568 160.646444 L 320.913396 162.598396 L 325.391363 156.634099 L 327.455674 157.021391 L 327.916174 160.909803 L 333.521572 160.708411 L 333.362779 157.114341 L 339.285764 158.694493 L 338.984057 161.080212 L 338.650591 163.651831 L 342.652179 165.123541 L 349.162698 164.534857 L 352.941975 162.366021 L 353.354837 163.961664 L 350.73475 167.726143 L 351.163492 172.265206 L 349.273853 172.358156 L 349.35325 174.6974 L 343.747852 177.501394 L 341.477109 176.63386 L 340.730782 178.66327 L 337.793108 180.615222 L 339.111091 180.940548 L 340.397316 183.341758 L 339.015816 185.01486 L 339.412798 189.197614 L 332.473538 189.739823 L 331.552537 186.223211 L 326.455277 190.45244 L 327.757381 186.966812 L 327.185726 185.448627 L 325.91538 185.727477 L 326.280605 196.912472 L 328.186122 197.640581 L 327.77326 199.205241 L 329.504106 200.893834 L 332.4259 202.102185 L 333.426297 204.642821 L 329.186519 205.46388 L 325.629553 202.365544 L 319.261947 195.982971 L 321.072189 194.526753 L 320.214706 184.674043 L 322.199621 177.485903 L 321.786758 174.542483 L 317.626378 175.502967 L 314.79986 173.659457 L 317.642257 170.049895 L 317.213516 165.278457 L 310.464807 164.503873 Z M 306.844323 166.084025 " stroke="#ffffff" stroke-width="0.5" stroke-opacity="1" stroke-miterlimit="4"/><path stroke-linecap="butt" transform="matrix(0.245996, 0, 0, 0.252151, -0.0801695, 0.137298)" fill-opacity="1" fill="#cccccc" fill-rule="nonzero" stroke-linejoin="miter" d="M 329.186519 205.46388 L 333.426297 204.642821 L 332.4259 202.102185 L 329.504106 200.893834 L 327.77326 199.205241 L 328.202002 197.640581 L 326.280605 196.912472 L 325.91538 185.727477 L 327.185726 185.433135 L 327.77326 186.95132 L 326.455277 190.45244 L 331.552537 186.20772 L 332.473538 189.724331 L 339.428678 189.166631 L 343.144438 189.553923 L 344.224231 190.994649 L 341.762937 193.101518 L 341.064247 199.065816 L 338.587074 199.74745 L 339.698626 200.785392 L 340.794299 200.2122 L 340.429075 201.96276 L 342.15992 205.200522 L 336.36397 206.966573 L 336.300453 205.64978 L 335.030107 205.355438 L 331.822486 204.90618 L 329.39295 206.734198 Z M 306.844323 166.084025 L 310.464807 164.488382 L 317.229395 165.278457 L 317.642257 170.049895 L 314.79986 173.643966 L 317.626378 175.502967 L 321.786758 174.542483 L 322.2155 177.470411 L 320.230585 184.674043 L 321.072189 194.526753 L 319.277827 195.967479 L 325.645432 202.365544 L 321.262741 203.744304 L 314.053532 209.166392 L 312.163893 208.965 L 310.893548 206.93559 L 308.209944 205.727239 L 307.225426 207.524274 L 301.477114 205.835681 L 295.585888 208.763608 L 292.362387 205.789206 L 289.726421 205.154047 L 287.963817 202.489477 L 282.501332 202.350052 L 284.581522 198.27574 L 281.643849 192.714226 L 284.962626 187.663938 L 285.534281 180.878581 L 288.678386 177.950653 L 290.536266 178.756221 L 290.917369 181.854557 L 294.093232 175.843784 L 298.015423 172.884873 L 296.284578 168.903511 L 301.143648 166.347383 L 303.112683 167.183934 Z M 306.844323 166.084025 " stroke="#ffffff" stroke-width="0.5" stroke-opacity="1" stroke-miterlimit="4"/><path stroke-linecap="butt" transform="matrix(0.245996, 0, 0, 0.252151, -0.0801695, 0.137298)" fill-opacity="1" fill="#cccccc" fill-rule="nonzero" stroke-linejoin="miter" d="M 459.253992 59.702645 L 459.06344 59.051994 Z M 480.119412 51.64697 L 471.528703 61.158863 L 471.59222 62.847457 L 473.640652 64.427608 L 483.914569 56.573325 L 491.155536 68.455445 L 492.187692 68.718804 L 493.124571 67.262586 L 494.426675 69.183554 L 499.603332 70.593297 L 497.777211 74.605643 L 498.666453 79.857323 L 501.572367 82.893693 L 501.572367 84.690728 L 498.999918 87.463739 L 494.982451 87.866523 L 492.425882 90.763467 L 489.551726 98.509308 L 486.058276 101.127403 L 484.56562 105.06229 L 482.437792 106.843833 L 476.403652 124.488859 L 479.595395 133.272642 L 480.897499 141.514217 L 479.976498 143.698544 L 474.561652 147.71089 L 474.974514 150.019151 L 484.263914 164.84469 L 480.770464 165.913616 L 480.64343 168.764086 L 478.76967 169.35277 L 475.450893 174.945267 L 475.2921 176.91271 L 476.514808 177.563361 L 473.767686 180.011047 L 473.878841 182.288324 L 471.989203 182.846025 L 471.258754 185.402152 L 465.970942 181.60669 L 453.442162 179.933588 L 452.314731 178.957612 L 446.677574 179.546296 L 444.21628 176.959185 L 444.486228 173.535524 L 442.564831 171.025871 L 444.517987 161.235128 L 443.390556 157.067866 L 438.976106 153.504779 L 435.260346 155.425748 L 429.623189 152.854128 L 434.434622 150.127592 L 436.32426 147.24614 L 436.403657 136.076637 L 429.035655 134.713369 L 420.016203 135.023203 L 411.584287 126.223927 L 406.804613 117.68801 L 390.067815 119.485046 L 387.1619 118.97382 L 384.970554 117.052852 L 383.287347 113.303864 L 384.36714 111.78568 L 390.845901 110.964621 L 392.830815 112.34338 L 393.65654 110.716754 L 401.754991 109.384469 L 402.945939 108.005709 L 403.835181 105.170731 L 401.897905 103.575088 L 403.914578 102.831488 L 405.153164 100.244377 L 407.392148 99.826101 L 408.789527 97.223499 L 406.995165 90.763467 L 405.454871 90.484617 L 403.215888 86.069488 L 406.995165 82.971151 L 407.709734 79.067247 L 409.472338 78.571514 L 409.472338 75.287277 L 412.505287 74.590151 L 413.934426 72.994508 L 415.903461 74.202859 L 416.062254 72.91705 L 419.253996 72.173449 L 414.569598 69.307488 L 414.776029 67.773811 L 412.171822 66.782344 L 411.50489 65.202192 L 412.695839 63.405157 L 416.713306 62.305248 L 418.444151 63.947366 L 422.064635 62.398198 L 423.033273 64.954325 L 426.113861 64.53605 L 427.003102 65.512026 L 431.92569 63.916383 L 433.386587 60.678621 L 434.434622 62.537623 L 435.292105 61.933447 L 435.720846 63.126307 L 439.277813 63.606549 L 439.738313 65.573993 L 441.262727 64.53605 L 444.708539 66.395052 L 446.518781 66.488002 L 448.900678 64.8149 L 451.266696 65.930301 L 454.283766 63.219257 L 453.72799 61.282797 L 452.537041 61.855989 L 453.72799 59.594203 L 451.949507 58.354869 L 450.25042 60.105429 L 447.249229 59.082978 L 448.805402 59.423795 L 449.059471 57.347909 L 451.806593 56.232508 L 453.219852 56.976109 L 453.982059 55.179074 L 456.840336 55.225549 L 457.237319 57.146518 L 459.047561 57.502826 L 456.411594 61.112388 L 461.350061 61.251813 L 460.492578 64.272691 L 462.382217 63.885399 L 464.589442 66.224643 L 465.79627 62.754506 L 467.384201 62.336231 L 479.00786 50.113294 Z M 478.150377 87.231364 L 479.48424 82.165584 L 484.057482 81.127641 L 484.406827 82.661318 L 489.043587 78.912331 L 492.425882 78.277172 L 490.266295 75.953419 L 494.204365 73.614175 L 495.776417 72.297382 L 491.203174 69.524371 L 482.898292 67.525944 L 481.897896 68.827246 L 482.548947 70.391906 L 472.036841 74.899985 L 469.686702 74.295809 L 469.194443 78.44758 L 466.240891 80.585432 L 463.843114 80.957233 L 460.841923 79.671423 L 451.457248 82.212059 L 446.598177 80.972724 L 441.850262 81.809275 L 439.452485 88.269307 L 436.56245 88.76504 L 437.181743 90.593059 L 438.722037 90.066342 L 437.689881 91.754935 L 438.563244 93.319595 L 440.770469 92.653453 L 442.247245 94.74483 L 439.055503 97.037598 L 440.9769 102.754029 L 438.467968 105.867857 L 442.803021 108.253576 L 445.502505 108.47046 L 447.773247 107.2776 L 450.901472 109.694303 L 452.362369 109.353486 L 454.204369 111.894121 L 456.776819 110.670279 L 462.366338 114.264349 L 469.829616 110.887162 L 473.037238 108.222593 L 476.594204 103.435663 L 478.626757 91.646493 Z M 478.150377 87.231364 " stroke="#ffffff" stroke-width="0.5" stroke-opacity="1" stroke-miterlimit="4"/><g clip-path="url(#4a0c350399)"><path fill="#cccccc" d="M 87.4375 10.335938 L 87.535156 10.34375 L 86.269531 12.96875 L 85.535156 11.480469 L 86.378906 10.625 L 86.847656 10.894531 Z M 94.675781 4.167969 L 94.480469 4.316406 L 94.9375 4.894531 L 95.761719 4.960938 L 95.960938 5.398438 L 96.703125 5.394531 L 96.75 5.882812 L 96.011719 5.78125 L 96.257812 5.964844 L 95.984375 6.410156 L 96.539062 6.78125 L 96.835938 7.851562 L 95.964844 8.023438 L 96.164062 7.570312 L 95.378906 6.863281 L 94.511719 6.667969 L 94.148438 6.859375 L 94.246094 6.101562 L 94.632812 5.875 L 94.066406 5.3125 L 93.308594 5.21875 L 93.328125 4.640625 L 93.992188 4.125 L 94.273438 4.203125 L 94.210938 3.820312 L 94.5625 3.667969 Z M 86.863281 0.546875 L 88.253906 0.601562 L 88.304688 2.191406 L 88.636719 2.621094 L 89.40625 1.894531 L 89.144531 1.144531 L 89.46875 0.542969 L 89.839844 1.128906 L 90.457031 1.316406 L 90.789062 2.757812 L 91.460938 2.261719 L 91.917969 2.484375 L 92.351562 3.152344 L 91.722656 3.335938 L 91.414062 4.164062 L 92.199219 4.769531 L 91.890625 5.910156 L 91.558594 6.011719 L 91.082031 4.894531 L 90.492188 5.136719 L 89.835938 4.878906 L 89.789062 5.234375 L 90.179688 5.5 L 89.621094 5.917969 L 89.792969 6.308594 L 89.789062 6.324219 L 89.1875 5.839844 L 88.550781 5.96875 L 88.589844 6.664062 L 88.050781 6.835938 L 88.171875 7.554688 L 87.816406 6.984375 L 86.921875 7.503906 L 86.285156 7.109375 L 85.679688 7.386719 L 85.679688 7.765625 L 85.433594 7.46875 L 85.214844 7.613281 L 85.316406 8.359375 L 84.140625 8.289062 L 84.140625 8.554688 L 83.5 8.132812 L 83.542969 8.675781 L 83.148438 8.277344 L 83.289062 7.785156 L 82.53125 7.910156 L 81.828125 7.304688 L 81.441406 7.316406 L 81.222656 6.921875 L 81.726562 6.417969 L 81.226562 5.691406 L 82.460938 4.457031 L 82.824219 4.460938 L 82.664062 3.574219 L 83.460938 2.425781 L 84.703125 1.777344 L 85.019531 2.03125 L 85.191406 1.644531 L 86.054688 1.328125 L 86.472656 1.707031 L 86.835938 1.523438 L 86.792969 1.058594 L 86.394531 0.859375 L 86.503906 0.171875 Z M 86.863281 0.546875 " fill-opacity="1" fill-rule="nonzero"/></g><g clip-path="url(#c4c0b1f39a)"><path stroke-linecap="butt" transform="matrix(0.245996, 0, 0, 0.252151, -0.0801695, 0.137298)" fill="none" stroke-linejoin="miter" d="M 355.768493 40.446484 L 356.165476 40.477468 L 351.020578 50.887878 L 348.035267 44.985547 L 351.465199 41.592869 L 353.370717 42.661795 Z M 385.192865 15.985119 L 384.398899 16.573803 L 386.256779 18.866572 L 389.607314 19.12993 L 390.41716 20.864999 L 393.434229 20.849507 L 393.624781 22.785967 L 390.623591 22.383183 L 391.623987 23.111292 L 390.512435 24.877344 L 392.767298 26.349054 L 393.974126 30.593775 L 390.433039 31.275409 L 391.242884 29.478374 L 388.051142 26.674379 L 384.525934 25.899795 L 383.049157 26.658888 L 383.44614 23.653501 L 385.018192 22.754984 L 382.715692 20.524182 L 379.635104 20.152381 L 379.714501 17.859612 L 382.413985 15.81471 L 383.557295 16.124544 L 383.303226 14.606359 L 384.732365 14.002183 Z M 353.434234 1.62433 L 359.08727 1.841213 L 359.293701 8.146328 L 360.643443 9.850413 L 363.771668 6.96896 L 362.707754 3.994557 L 364.025737 1.608838 L 365.534272 3.93259 L 368.043204 4.676191 L 369.392946 10.392622 L 372.124188 8.425178 L 373.982068 9.308204 L 375.744672 11.957281 L 373.188102 12.68539 L 371.933636 15.969627 L 375.125379 18.370838 L 373.870913 22.894409 L 372.521171 23.297193 L 370.583895 18.866572 L 368.186118 19.827056 L 365.518393 18.804605 L 365.327841 20.214348 L 366.915773 21.267782 L 364.645031 22.925392 L 365.343721 24.47456 L 365.327841 24.536527 L 362.882427 22.615559 L 360.294098 23.126784 L 360.452891 25.884303 L 358.261546 26.565937 L 358.753805 29.416407 L 357.308787 27.154621 L 353.672424 29.215015 L 351.084095 27.650355 L 348.622801 28.750265 L 348.622801 30.252958 L 347.622405 29.07559 L 346.733163 29.648782 L 347.146025 32.607693 L 342.366351 32.328843 L 342.366351 33.382278 L 339.762143 31.709176 L 339.936816 33.86252 L 338.333005 32.282368 L 338.90466 30.330416 L 335.824073 30.82615 L 332.965796 28.424939 L 331.393744 28.471414 L 330.504503 26.906754 L 332.552934 24.908327 L 330.520382 22.026875 L 335.538246 17.131503 L 337.015022 17.146995 L 336.36397 13.630383 L 339.60335 9.075829 L 344.652973 6.504209 L 345.939197 7.511169 L 346.637887 5.977492 L 350.147216 4.722666 L 351.846302 6.225359 L 353.323079 5.49725 L 353.148406 3.65374 L 351.528716 2.863664 L 351.973337 0.137128 Z M 353.434234 1.62433 " stroke="#ffffff" stroke-width="0.5" stroke-opacity="1" stroke-miterlimit="4"/></g><path stroke-linecap="butt" transform="matrix(0.245996, 0, 0, 0.252151, -0.0801695, 0.137298)" fill-opacity="1" fill="#cccccc" fill-rule="nonzero" stroke-linejoin="miter" d="M 234.498162 128.346288 L 234.625196 128.454729 L 233.958265 130.236273 L 231.98923 130.205289 L 232.513247 128.284321 L 234.132937 127.695637 Z M 197.642271 72.250907 L 199.881254 72.173449 L 201.612099 74.140893 L 202.326669 75.705552 L 201.516824 77.98283 L 197.483477 79.113723 L 191.512855 78.385613 L 192.243303 75.070394 Z M 270.766518 76.69702 L 268.702207 72.700166 L 269.924914 70.128547 L 271.512846 68.718804 L 272.513243 69.539863 L 274.164692 75.271785 L 273.926502 76.635053 L 273.466002 75.535144 Z M 270.766518 76.69702 L 277.022968 79.377081 L 277.67402 82.04165 L 279.373107 82.1346 L 279.452504 87.525706 L 277.292917 89.86495 L 276.546589 93.877295 L 269.035673 97.827674 L 268.765724 94.775813 L 265.002327 94.481471 L 263.28736 92.715419 L 260.826067 98.974059 L 257.189703 99.857085 L 254.410823 106.394574 L 252.473547 107.881776 L 250.806219 108.873243 L 249.15477 107.4635 L 246.899907 109.895694 L 245.391372 107.556451 L 242.977716 109.322502 L 239.754215 109.21406 L 233.243696 102.335754 L 228.97216 104.520081 L 219.142864 105.976299 L 220.984864 107.912759 L 221.254813 111.909613 L 224.383038 115.2868 L 227.241315 115.19385 L 228.321108 120.646922 L 231.433454 121.979206 L 231.703402 127.199903 L 229.845522 127.215395 L 227.987642 131.072824 L 224.017814 129.647589 L 219.905071 131.367166 L 219.063467 128.873005 L 216.776846 127.370312 L 214.553742 128.873005 L 211.457275 128.795546 L 212.26712 131.320691 L 209.774068 135.673853 L 203.136514 139.267923 L 204.946756 143.806986 L 200.43703 145.944838 L 199.293719 140.786108 L 193.497769 142.474702 L 190.861803 136.649829 L 192.957873 135.813278 L 195.403287 137.315971 L 200.103565 136.262537 L 197.785184 133.876818 L 198.309202 132.854367 L 200.167082 132.2347 L 201.627979 129.848981 L 204.994394 130.344715 L 207.900308 126.98302 L 205.423135 126.130977 L 205.026152 122.939691 L 201.405668 123.187558 L 201.183358 124.922626 L 199.134926 124.302959 L 199.134926 125.836635 L 196.514839 128.563171 L 192.656166 128.996938 L 192.497372 127.943504 L 193.672442 127.711129 L 191.878079 123.683291 L 190.115475 121.994698 L 188.654578 122.800266 L 186.76494 117.672519 L 189.686734 117.331702 L 196.975339 113.055998 L 197.134133 110.453395 L 203.898721 108.129643 L 206.375894 104.334181 L 212.7435 102.335754 L 216.173432 96.696781 L 218.047191 95.225072 L 215.395345 92.08026 L 213.585103 91.646493 L 213.6645 89.198807 L 211.34612 88.284798 L 211.600189 86.844072 L 203.438221 87.20038 L 199.627185 85.35687 L 200.627582 80.895266 L 205.184945 81.019199 L 205.486652 83.23451 L 208.662516 84.272453 L 210.917378 83.528852 L 212.552948 80.569941 L 211.822499 78.881347 L 219.190502 78.199713 L 217.60257 76.88292 L 217.586691 73.831059 L 219.492209 75.395719 L 223.970176 74.590151 L 225.097607 68.532904 L 222.445761 67.185127 L 222.842744 63.374174 L 227.33659 64.752933 L 229.416781 63.823432 L 228.432263 62.940407 L 229.19447 62.119347 L 230.814161 61.933447 L 231.322299 64.226216 L 235.514438 65.357109 L 236.62599 67.076686 L 235.244489 70.267972 L 233.529523 71.212965 L 232.703799 77.285704 L 230.290143 79.098231 L 226.304435 79.082739 L 226.383832 84.582286 L 227.495384 85.016053 L 227.81297 87.665131 L 235.323886 86.627188 L 239.214318 87.401772 L 241.072198 91.073301 L 244.692682 93.304103 L 248.122614 92.622469 L 249.39296 88.734057 L 252.727616 88.20734 L 254.25203 86.177929 L 259.476325 84.365403 L 258.253618 81.9487 L 260.095618 79.934782 L 263.573188 81.391 Z M 209.519999 61.081405 L 212.695862 61.855989 L 213.346914 63.15729 L 212.076568 66.56546 L 212.50531 69.075113 L 207.058705 69.617322 L 202.644255 71.429848 L 200.643461 69.121588 L 202.326669 66.735869 L 198.81734 64.923342 L 197.594633 65.403584 L 199.484271 61.964431 L 205.407256 65.434567 L 209.583516 62.196806 Z M 209.519999 61.081405 " stroke="#ffffff" stroke-width="0.5" stroke-opacity="1" stroke-miterlimit="4"/><path stroke-linecap="butt" transform="matrix(0.245996, 0, 0, 0.252151, -0.0801695, 0.137298)" fill-opacity="1" fill="#cccccc" fill-rule="nonzero" stroke-linejoin="miter" d="M 384.954675 117.052852 L 387.146021 118.97382 L 390.051935 119.485046 L 406.772854 117.68801 L 411.568408 126.223927 L 406.439389 133.675426 L 406.899889 140.042507 L 404.645026 142.412735 L 407.471544 143.667561 L 403.914578 150.793735 L 400.38937 152.978062 L 397.674007 152.978062 L 397.753403 155.162389 L 396.340144 155.875006 L 398.690283 157.114341 L 399.897111 160.197186 L 402.755388 162.737821 L 401.53268 163.791256 L 403.342922 166.796642 L 406.772854 168.299335 L 404.724423 172.528564 L 405.804216 174.666417 L 401.945543 176.200093 L 393.672419 181.14194 L 391.862177 181.157431 L 390.734746 182.907991 L 390.16309 177.454919 L 388.575159 178.554829 L 387.304814 173.086265 L 385.097589 171.893406 L 382.032881 174.015766 L 379.698622 171.924389 L 371.250826 176.695827 L 369.234153 170.716038 L 365.994772 171.304722 L 359.801839 169.523178 L 357.435821 169.91047 L 357.165873 163.016672 L 354.561665 161.746354 L 352.941975 162.366021 L 349.162698 164.534857 L 342.652179 165.123541 L 338.650591 163.651831 L 338.984057 161.080212 L 344.224231 159.531043 L 344.986438 156.324265 L 335.109504 148.005232 L 329.726416 148.795308 L 328.265519 147.664415 L 332.171831 140.70865 L 336.745073 137.997605 L 337.253212 138.214489 L 339.555712 138.415881 L 342.207558 140.770617 L 346.272663 143.032402 L 351.544595 141.963476 L 352.020975 144.39567 L 357.832804 141.762084 L 362.10434 141.963476 L 364.962617 137.827197 L 366.677583 137.594822 L 367.789135 135.952703 L 368.297273 132.436092 L 370.45686 130.654548 L 369.29767 128.160387 L 367.662101 125.031068 L 370.806205 120.553972 L 382.731571 116.634576 Z M 384.954675 117.052852 " stroke="#ffffff" stroke-width="0.5" stroke-opacity="1" stroke-miterlimit="4"/><path stroke-linecap="butt" transform="matrix(0.245996, 0, 0, 0.252151, -0.0801695, 0.137298)" fill-opacity="1" fill="#cccccc" fill-rule="nonzero" stroke-linejoin="miter" d="M 483.914569 56.573325 L 473.624772 64.427608 L 471.59222 62.847457 L 471.512823 61.158863 L 480.103533 51.64697 Z M 370.869722 23.607026 L 372.521171 23.281701 L 373.870913 22.878917 L 378.078931 23.777435 L 383.065036 26.658888 L 384.525934 25.899795 L 388.067021 26.674379 L 391.258763 29.478374 L 390.448918 31.275409 L 393.974126 30.593775 L 397.562851 31.817618 L 413.632719 24.304152 L 422.683928 25.636437 L 426.907826 28.006664 L 431.576345 28.316498 L 433.54538 30.392383 L 435.704967 30.144516 L 473.307186 48.657076 L 478.976101 50.144277 L 467.352443 62.351723 L 465.764511 62.769998 L 464.557683 66.255627 L 462.350458 63.900891 L 460.476699 64.303675 L 461.318303 61.267305 L 456.379836 61.12788 L 459.015802 57.53381 L 457.20556 57.177501 L 456.808577 55.241041 L 453.96618 55.194566 L 453.188093 56.991601 L 451.774834 56.248 L 449.027713 57.363401 L 448.773644 59.439286 L 447.217471 59.098469 L 450.218661 60.12092 L 451.917748 58.37036 L 453.696231 59.625187 L 452.505283 61.871481 L 453.696231 61.31378 L 454.252007 63.234749 L 451.234937 65.945793 L 448.868919 64.845883 L 446.487022 66.503493 L 444.67678 66.410543 L 441.230969 64.567033 L 439.706555 65.589484 L 439.246054 63.622041 L 435.689088 63.141798 L 435.260346 61.948939 L 434.402863 62.553115 L 433.354828 60.694113 L 431.893931 63.947366 L 426.987223 65.527517 L 426.082102 64.551542 L 423.017394 64.969817 L 422.032876 62.413689 L 418.412393 63.962858 L 416.697427 62.320739 L 412.66408 63.43614 L 411.473132 65.217684 L 412.140063 66.813327 L 414.744271 67.789303 L 414.53784 69.32298 L 419.222238 72.204432 L 416.046375 72.932541 L 415.871702 74.233843 L 413.902667 73.025492 L 412.473529 74.605643 L 409.440579 75.302769 L 409.456459 78.587005 L 407.677975 79.082739 L 406.963406 82.986643 L 403.184129 86.084979 L 400.564042 81.623375 L 397.769283 80.864283 L 399.023748 78.385613 L 398.626766 74.683101 L 400.294094 74.714085 L 401.675594 74.156384 L 398.2933 73.5677 L 398.372697 71.243948 L 395.133316 67.154144 L 395.435023 65.062767 L 397.022955 64.4431 L 396.943558 56.34095 L 389.416763 54.636865 L 387.733555 50.314686 L 390.734746 48.842976 L 388.035262 46.844549 L 384.891158 47.278316 L 384.668847 44.908089 L 376.872103 43.08007 L 375.744672 39.749359 L 376.808586 37.038314 L 384.36714 41.314019 L 387.415969 32.20491 L 384.494175 31.166967 L 384.494175 28.595348 L 382.350467 28.409448 L 381.413588 31.135984 L 376.760948 33.76957 L 371.473136 33.056952 L 368.916566 31.585242 L 365.311962 24.536527 L 365.327841 24.47456 L 368.995963 22.44515 Z M 459.06344 59.051994 L 459.253992 59.702645 Z M 459.06344 59.051994 " stroke="#ffffff" stroke-width="0.5" stroke-opacity="1" stroke-miterlimit="4"/><g clip-path="url(#09e107ceaf)"><path fill="#cccccc" d="M 90.277344 61.421875 L 90.917969 61.324219 L 91.515625 61.824219 L 91.914062 61.539062 L 92.292969 61.769531 L 93.101562 61.65625 L 94.3125 62.179688 L 95.28125 61.824219 L 95.386719 62.257812 L 95.792969 62.1875 L 97.980469 60.992188 L 98.164062 60.589844 L 97.832031 59.679688 L 98.390625 59.273438 L 99.019531 59.507812 L 99.386719 58.835938 L 99.695312 60.289062 L 101.101562 59.859375 L 102.070312 60.425781 L 102.382812 61.054688 L 101.613281 62.964844 L 101.730469 64.851562 L 102.597656 66.390625 L 103.773438 66.585938 L 104.121094 67.324219 L 103.933594 68.703125 L 104.386719 69.742188 L 103.945312 70.050781 L 104.136719 71.636719 L 103.90625 72.824219 L 103.320312 73.078125 L 103.1875 73.433594 L 103.101562 73.933594 L 103.46875 74.582031 L 102.757812 75.660156 L 103.519531 77.132812 L 103.859375 79.421875 L 104.835938 80.019531 L 105.511719 81.097656 L 106.289062 81.597656 L 104.835938 83.261719 L 103.269531 84.0625 L 103.785156 85.65625 L 103.386719 86.757812 L 102.476562 86.871094 L 101.4375 87.460938 L 101.085938 88.15625 L 101.820312 90.324219 L 101.28125 90.527344 L 101.109375 90.933594 L 100.75 90.925781 L 100.597656 91.472656 L 101.386719 91.933594 L 101.550781 93.433594 L 102.882812 93.789062 L 103.160156 94.269531 L 103.40625 94.210938 L 103.414062 94.851562 L 103.769531 94.703125 L 103.890625 94.917969 L 102.570312 96.359375 L 102.589844 97.023438 L 101.953125 98.378906 L 102.105469 98.777344 L 100.582031 98.738281 L 100.804688 98.074219 L 100.347656 97.824219 L 99.652344 97.957031 L 99.445312 97.558594 L 97.949219 98.144531 L 98.039062 97.46875 L 99.074219 96.390625 L 98.734375 96.339844 L 98.5625 95.335938 L 98.253906 95.078125 L 98.339844 94.546875 L 97.480469 93.15625 L 97.453125 92.042969 L 96.539062 91.824219 L 95.28125 90.472656 L 93.714844 90.386719 L 94.238281 89.117188 L 95.417969 87.851562 L 95.320312 87.441406 L 95.695312 87.546875 L 96 87.019531 L 95.984375 86.28125 L 94.457031 85 L 93.667969 85.34375 L 92.855469 84.914062 L 92.308594 83.984375 L 91.527344 84.863281 L 90.648438 84.957031 L 89.496094 84.402344 L 89.164062 83.925781 L 88.019531 83.984375 L 87.496094 83.046875 L 87.699219 82.339844 L 86.738281 81.921875 L 86.398438 80.925781 L 85.550781 80.15625 L 85.3125 79.273438 L 83.335938 78.609375 L 83.054688 77.996094 L 82.445312 77.792969 L 82.414062 77.4375 L 82.847656 76.984375 L 81.875 75.332031 L 83.148438 73.59375 L 83.085938 72.589844 L 83.328125 72.148438 L 83.054688 70.941406 L 83.375 70.496094 L 82.886719 68.660156 L 83.296875 68.183594 L 82.414062 67.144531 L 80.539062 67.746094 L 80.804688 65.757812 L 82.480469 65.601562 L 83.628906 64.019531 L 85.015625 63.441406 L 84.8125 62.4375 L 85.089844 61.492188 L 85.671875 61.019531 L 85.964844 61.277344 L 86.824219 61.179688 L 87.375 61.65625 L 88.386719 61.488281 L 88.90625 62.132812 Z M 100.0625 90.734375 L 99.738281 90.625 L 99.484375 91.574219 L 100 91.738281 Z M 100.0625 90.734375 " fill-opacity="1" fill-rule="nonzero"/></g><g clip-path="url(#1f40baaf37)"><path stroke-linecap="butt" transform="matrix(0.245996, 0, 0, 0.252151, -0.0801695, 0.137298)" fill="none" stroke-linejoin="miter" d="M 367.312756 243.046701 L 369.916963 242.659408 L 372.346499 244.642344 L 373.966189 243.511451 L 375.506482 244.42546 L 378.793501 243.976201 L 383.716088 246.052087 L 387.654159 244.642344 L 388.0829 246.36192 L 389.734349 246.08307 L 398.626766 241.342616 L 399.373093 239.746972 L 398.023352 236.13741 L 400.294094 234.526275 L 402.850663 235.455776 L 404.343319 232.791207 L 405.597785 238.554113 L 411.314339 236.850028 L 415.252409 239.096322 L 416.522754 241.590482 L 413.394529 249.165915 L 413.870908 256.648397 L 417.396116 262.75212 L 422.17579 263.526704 L 423.589049 266.454632 L 422.826842 271.923196 L 424.668843 276.043983 L 422.87448 277.267826 L 423.652567 283.557449 L 422.715687 288.26692 L 420.33379 289.273879 L 419.793893 290.683622 L 419.444548 292.666558 L 420.937204 295.238177 L 418.047168 299.513881 L 421.143635 305.354245 L 422.525135 314.432371 L 426.494964 316.802598 L 429.242086 321.078302 L 432.402069 323.061238 L 426.494964 329.660694 L 420.127359 332.836489 L 422.223428 339.157095 L 420.603738 343.525749 L 416.903858 343.975008 L 412.67996 346.314252 L 411.250821 349.071772 L 414.236133 357.669655 L 412.044787 358.475222 L 411.346097 360.086357 L 409.8852 360.055374 L 409.265907 362.22421 L 412.473529 364.052228 L 413.14046 370.001034 L 418.555306 371.410777 L 419.682738 373.316254 L 420.683135 373.083879 L 420.714893 375.624514 L 422.159911 375.03583 L 422.65217 375.887873 L 417.284961 381.604304 L 417.364358 384.23789 L 414.776029 389.613503 L 415.395323 391.193655 L 409.20239 391.038738 L 410.107511 388.405152 L 408.249631 387.413684 L 405.423113 387.940401 L 404.581509 386.36025 L 398.499731 388.684002 L 398.864955 386.003941 L 403.072974 381.728237 L 401.691473 381.526845 L 400.992784 377.545483 L 399.738318 376.523032 L 400.087663 374.416163 L 396.594213 368.901124 L 396.483058 364.485995 L 392.767298 363.618461 L 387.654159 358.258339 L 381.286553 357.917522 L 383.414381 352.882725 L 388.209935 347.86342 L 387.812952 346.236794 L 389.337366 346.655069 L 390.575953 344.563692 L 390.512435 341.635764 L 384.303623 336.554493 L 381.096001 337.917761 L 377.793104 336.213676 L 375.57 332.526655 L 372.394137 336.012284 L 368.821291 336.384084 L 364.136893 334.184265 L 362.787151 332.29428 L 358.134511 332.526655 L 356.006683 328.808652 L 356.832407 326.004657 L 352.926096 324.347047 L 351.544595 320.396668 L 348.098784 317.344807 L 347.130146 313.843687 L 339.095212 311.210101 L 337.951901 308.777907 L 335.474728 307.972339 L 335.347694 306.562596 L 337.110298 304.765561 L 333.156348 298.21258 L 338.333005 291.318781 L 338.078936 287.337419 L 339.063454 285.586859 L 337.951901 280.799929 L 339.254005 279.033878 L 337.269091 271.752787 L 338.936419 269.862802 L 335.347694 265.742015 L 327.725622 268.127734 L 328.805416 260.242467 L 335.617642 259.6228 L 340.286161 253.348669 L 345.923318 251.0559 L 345.097593 247.074538 L 346.225025 243.325551 L 348.591043 241.451057 L 349.781991 242.473508 L 353.275441 242.086216 L 355.514424 243.976201 L 359.627167 243.310059 L 361.739116 245.866187 Z M 407.090441 359.296282 L 405.772458 358.862515 L 404.740302 362.626993 L 406.836372 363.277644 Z M 407.090441 359.296282 " stroke="#ffffff" stroke-width="0.5" stroke-opacity="1" stroke-miterlimit="4"/></g><path stroke-linecap="butt" transform="matrix(0.245996, 0, 0, 0.252151, -0.0801695, 0.137298)" fill-opacity="1" fill="#cccccc" fill-rule="nonzero" stroke-linejoin="miter" d="M 352.941975 162.366021 L 354.561665 161.746354 L 357.165873 163.016672 L 357.435821 169.91047 L 359.801839 169.523178 L 365.994772 171.304722 L 369.234153 170.716038 L 371.250826 176.695827 L 379.698622 171.924389 L 382.032881 174.015766 L 385.097589 171.893406 L 387.304814 173.086265 L 388.575159 178.554829 L 390.16309 177.454919 L 390.734746 182.907991 L 391.862177 181.157431 L 393.672419 181.14194 L 401.945543 176.200093 L 404.343319 179.964572 L 404.835578 184.766993 L 393.402471 191.583333 L 394.656937 194.387328 L 394.101161 197.315256 L 389.781987 201.126209 L 387.495365 201.482518 L 388.273452 206.393381 L 386.193262 207.21444 L 385.399296 212.202762 L 381.254795 213.93783 L 378.872897 210.746544 L 376.697431 212.388662 L 376.506879 215.982732 L 371.37786 219.607786 L 369.631136 218.81771 L 366.75698 220.816137 L 367.280997 226.253717 L 364.057496 229.22812 L 363.644634 232.233507 L 367.312756 235.796593 L 367.312756 243.046701 L 361.754995 245.835203 L 359.627167 243.263584 L 355.530304 243.929726 L 353.275441 242.039741 L 349.781991 242.427033 L 348.591043 241.404582 L 346.225025 243.294567 L 345.097593 247.012571 L 345.923318 251.009425 L 340.286161 253.302194 L 333.791521 250.203858 L 331.203192 243.372026 L 330.949123 238.972388 L 332.902279 233.705216 L 332.918158 229.460495 L 331.26671 228.716895 L 329.535864 224.394716 L 329.758175 221.900555 L 329.758175 220.955562 L 333.616848 222.194897 L 336.903867 221.714655 L 337.253212 217.547392 L 336.300453 216.772808 L 336.60216 213.581522 L 335.379452 212.249237 L 335.093625 209.104425 L 336.36397 206.997557 L 342.144041 205.216013 L 340.413195 201.978252 L 340.77842 200.227692 L 339.682747 200.800884 L 338.587074 199.762941 L 341.048368 199.096799 L 341.747058 193.11701 L 344.224231 191.010141 L 343.128558 189.584906 L 339.412798 189.197614 L 339.015816 185.01486 L 340.397316 183.341758 L 339.111091 180.940548 L 337.793108 180.615222 L 340.730782 178.66327 L 341.477109 176.63386 L 343.747852 177.501394 L 349.35325 174.6974 L 349.273853 172.358156 L 351.163492 172.265206 L 350.73475 167.726143 L 353.354837 163.961664 Z M 352.941975 162.366021 " stroke="#ffffff" stroke-width="0.5" stroke-opacity="1" stroke-miterlimit="4"/><path stroke-linecap="butt" transform="matrix(0.245996, 0, 0, 0.252151, -0.0801695, 0.137298)" fill-opacity="1" fill="#cccccc" fill-rule="nonzero" stroke-linejoin="miter" d="M 67.892385 189.646873 L 70.909454 190.777766 L 76.626008 188.763847 L 84.915011 183.465692 L 86.677615 183.465692 L 90.583926 182.505208 L 93.315169 178.10557 L 103.176223 172.962332 L 102.715723 178.926629 L 105.843948 181.126448 L 104.907069 186.285178 L 107.971777 186.006328 L 111.258795 189.383514 L 106.129776 194.387328 L 111.036484 199.685483 L 111.84633 199.205241 L 110.845933 201.931777 L 111.338191 201.141701 L 113.624813 203.140128 L 114.529934 202.628902 L 117.277055 205.107572 L 121.882057 202.164152 L 124.470385 204.472413 L 128.678404 203.06267 L 128.916594 203.868237 L 131.616077 198.817949 L 130.15518 197.764514 L 129.027749 199.267207 L 128.07499 198.786965 L 128.853076 197.454681 L 127.916197 194.650686 L 131.504922 189.538431 L 129.23418 186.935829 L 126.645852 187.710413 L 130.266335 185.866903 L 126.9158 183.496675 L 122.850695 178.337945 L 126.995196 175.208625 L 131.520801 180.351864 L 130.85387 181.653165 L 132.600595 182.179882 L 136.236958 186.904845 L 135.26832 183.883967 L 137.332631 182.737583 L 138.253631 183.806509 L 139.412821 185.479611 L 137.396148 189.476464 L 137.904286 190.917191 L 139.571614 190.142607 L 138.634735 192.233984 L 139.920959 193.442335 L 138.888804 195.626662 L 136.014648 194.495769 L 135.014251 197.005422 L 136.42751 199.406633 L 135.093647 202.33456 L 133.092854 203.047178 L 130.091663 207.787632 L 129.297697 207.152474 L 128.487852 208.236891 L 130.075784 209.476226 L 131.489043 208.903034 L 132.886422 210.885969 L 132.092457 213.070296 L 126.757007 218.275501 L 126.264748 220.242945 L 122.390195 223.124398 L 123.565264 224.627091 L 123.025368 227.152235 L 121.10397 228.143703 L 118.420366 226.764943 L 116.403693 229.599921 L 113.735968 229.352054 L 114.38702 237.252811 L 113.196071 243.666368 L 115.673245 243.093176 L 115.816158 241.621466 L 118.32509 243.604401 L 120.135332 242.055233 L 122.390195 243.046701 L 122.707781 243.279076 L 123.835213 245.773237 L 125.184955 246.408396 L 127.042834 244.688819 L 127.582731 246.547821 L 126.4553 246.826671 L 122.104367 252.574085 L 121.294522 250.467216 L 117.943987 251.179834 L 117.229417 250.033449 L 115.292141 253.596536 L 120.246487 259.777717 L 122.247281 259.777717 L 126.931679 254.526037 L 126.709369 257.035689 L 128.789559 256.044222 L 132.076577 258.367974 L 134.585509 258.24404 L 136.951527 260.273451 L 138.205993 263.464737 L 137.967803 266.454632 L 139.66689 268.747401 L 138.555338 270.792303 L 143.223857 268.902318 L 143.652598 266.315207 L 149.003928 261.125493 L 154.323498 261.218443 L 157.404085 259.003133 L 160.7705 253.054327 L 162.850691 252.99236 L 166.836399 249.553207 L 168.948348 252.295235 L 172.775263 248.112481 L 174.394953 255.269638 L 173.680384 258.693299 L 172.155969 259.71575 L 172.632349 261.017052 L 171.012659 261.311394 L 172.092452 267.72495 L 170.663314 270.126161 L 167.04283 270.312061 L 166.741123 271.566887 L 169.043624 275.129974 L 166.884037 282.426556 L 168.90071 282.442048 L 169.837589 285.617842 L 171.695469 285.850218 L 170.29809 286.655785 L 170.647434 292.062382 L 166.264743 297.004229 L 167.312778 299.885681 L 165.947157 300.970099 L 166.217105 303.46426 L 164.803846 303.805077 L 159.754224 309.846833 L 157.546999 310.125683 L 157.245292 312.619844 L 155.355654 314.819663 L 145.224651 319.653068 L 142.382253 316.028014 L 138.98408 306.856938 L 135.982889 303.758602 L 135.220682 300.691249 L 132.203612 298.166105 L 131.393767 291.969432 L 129.647042 290.001988 L 126.582334 289.723138 L 124.81973 287.167011 L 125.200834 282.813848 L 116.530728 273.038597 L 97.904291 267.662983 L 75.89556 267.198233 L 63.414418 274.928582 L 40.579962 285.555876 L 38.483892 289.335846 L 30.321924 285.153092 L 29.003941 286.42341 L 32.433873 289.583713 L 37.261185 291.876482 L 35.593857 295.501535 L 32.719701 300.846166 L 25.192905 297.050704 L 22.731612 294.324168 L 28.749872 284.719325 L 27.463648 282.426556 L 26.113906 282.674423 L 18.666507 276.431275 L 14.474368 274.91309 L 17.396162 269.738868 L 15.617678 266.036356 L 18.8253 262.38032 L 21.14368 256.725856 L 24.430698 252.651543 L 25.526371 252.945885 L 26.955509 249.909516 L 20.68318 243.77481 L 29.940821 236.152902 L 43.914618 221.482279 L 53.346932 216.757316 L 55.776467 215.006756 L 55.69707 213.736438 L 58.078968 212.992838 L 59.047606 210.204335 L 65.034108 207.229932 L 67.654195 202.164152 L 64.557728 199.700975 L 63.938435 197.578614 L 65.177022 196.89698 L 65.526367 193.48881 Z M 115.371538 212.125303 L 113.053158 212.404154 L 112.402106 213.953322 L 115.244503 214.092747 L 117.769314 212.481612 L 122.564867 214.495531 L 123.025368 213.906847 L 125.026161 209.786059 L 122.167885 207.105998 L 121.58035 206.083547 L 121.10397 204.859705 L 120.532315 204.797738 L 116.197262 211.90842 Z M 112.06864 210.095893 L 110.68714 209.739584 L 110.258398 209.336801 L 106.987259 213.194229 L 108.82926 215.982732 L 110.036088 215.301098 L 110.845933 214.294139 Z M 28.622838 289.475271 L 30.448959 289.335846 L 29.797907 287.926103 L 29.4962 287.972578 L 29.432683 288.282412 Z M 147.606548 164.984115 L 149.496186 166.362875 L 148.702221 172.621515 L 153.227825 179.67023 L 152.132153 181.126448 L 149.226238 183.527659 L 150.464825 185.742969 L 145.812185 190.963666 L 144.922944 190.065148 L 146.256806 188.159672 L 144.954702 186.966812 L 145.764547 185.572561 L 143.16034 184.100851 L 142.064667 185.572561 L 140.82608 185.340185 L 140.063873 184.441668 L 142.286977 182.412258 L 138.396545 178.446387 L 139.126993 176.401485 L 136.18932 175.425509 L 131.393767 169.863995 L 141.334218 163.171589 L 146.383841 164.627807 Z M 147.606548 164.984115 " stroke="#ffffff" stroke-width="0.5" stroke-opacity="1" stroke-miterlimit="4"/><path stroke-linecap="butt" transform="matrix(0.245996, 0, 0, 0.252151, -0.0801695, 0.137298)" fill-opacity="1" fill="#cccccc" fill-rule="nonzero" stroke-linejoin="miter" d="M 331.26671 228.716895 L 332.918158 229.460495 L 332.902279 233.705216 L 330.949123 238.972388 L 331.203192 243.372026 L 333.791521 250.203858 L 340.286161 253.302194 L 335.617642 259.576325 L 328.805416 260.195992 L 327.725622 268.065767 L 324.597397 268.437567 L 319.357223 273.472364 L 316.737136 273.689247 L 314.688704 276.942501 L 318.404464 278.646586 L 318.452102 281.26468 L 313.974135 285.354484 L 311.004703 285.354484 L 310.909427 288.886587 L 305.875684 291.132881 L 303.922529 296.214153 L 298.142458 298.506922 L 294.347301 297.345046 L 285.915385 305.726046 L 290.42511 307.786439 L 290.933249 310.032733 L 294.315543 312.557877 L 297.904268 321.186744 L 295.839957 324.19213 L 296.157543 328.127018 L 291.1238 330.745112 L 289.647024 334.525082 L 279.849486 336.786868 L 278.436227 342.038548 L 280.214711 347.58457 L 277.134124 349.768897 L 277.785175 351.194132 L 276.832417 353.765751 L 275.371519 353.827718 L 273.894743 356.864088 L 272.275053 356.089503 L 262.985653 356.554254 L 260.921342 360.055374 L 259.079342 360.814466 L 258.20598 371.395285 L 257.03091 372.076919 L 251.393753 370.124967 L 248.424321 371.844544 L 244.248061 368.002607 L 241.945561 367.615315 L 239.722456 370.636193 L 237.975732 370.713651 L 236.086093 368.606782 L 236.054335 365.570413 L 232.576765 364.145178 L 230.163109 360.256766 L 226.701418 361.774951 L 220.111502 361.666509 L 218.253622 358.351289 L 215.014242 358.552681 L 213.791534 360.070866 L 213.648621 364.393045 L 207.805032 363.293136 L 204.263945 366.050655 L 204.359221 368.637766 L 201.246875 369.257433 L 197.372322 373.130354 L 194.974546 373.176829 L 192.941993 375.903365 L 187.130164 372.588145 L 184.081335 373.28527 L 180.222662 371.178402 L 175.39535 377.545483 L 174.23616 376.662457 L 169.789951 377.684908 L 166.375899 383.292897 L 164.105157 382.332413 L 161.643863 379.296043 L 156.562482 383.215438 L 154.323498 383.153472 L 153.243705 379.63686 L 146.717306 370.806601 L 145.875702 364.780337 L 142.207581 362.162243 L 144.176616 360.194799 L 142.318736 358.413256 L 142.191701 356.585237 L 138.74589 355.036069 L 138.174234 352.154616 L 135.712941 349.923814 L 134.156768 345.957943 L 132.314767 345.415735 L 132.298888 343.649683 L 130.282215 343.634191 L 126.026558 347.646537 L 123.692299 345.895977 L 126.105955 341.635764 L 125.121437 337.437518 L 127.122231 331.783055 L 118.626797 330.202903 L 116.00671 330.884537 L 113.46602 329.25791 L 112.878485 324.223114 L 115.498572 320.567077 L 114.38702 316.415306 L 116.753038 310.977726 L 121.262764 306.392188 L 122.580747 301.5278 L 121.80266 299.575848 L 120.135332 299.606831 L 117.674038 297.376029 L 117.277055 295.548011 L 113.799485 293.642534 L 113.68833 291.95394 L 111.782812 291.055423 L 109.924932 287.027585 L 110.623622 285.277025 L 112.862606 284.657358 L 114.641089 282.287131 L 114.196468 280.226737 L 116.594245 273.038597 L 125.264351 282.813848 L 124.883248 287.167011 L 126.661731 289.723138 L 129.710559 290.001988 L 131.457284 291.969432 L 132.283008 298.166105 L 135.284199 300.691249 L 136.062286 303.774094 L 139.063476 306.856938 L 142.46165 316.043506 L 145.288168 319.668559 L 155.419171 314.835155 L 157.30881 312.635336 L 157.626396 310.156667 L 159.817741 309.846833 L 164.867364 303.83606 L 166.280623 303.479752 L 165.994795 300.985591 L 167.376296 299.901173 L 166.312381 297.01972 L 170.710952 292.093365 L 174.855453 291.969432 L 176.284591 290.327314 L 176.236953 286.42341 L 180.968989 285.075634 L 182.731593 283.20114 L 182.461645 287.833153 L 183.382645 289.211913 L 188.60694 287.972578 L 194.720477 282.92229 L 200.008289 280.954846 L 203.168272 282.844831 L 205.53429 281.202713 L 206.661722 284.022199 L 213.569224 282.581473 L 215.776449 280.381654 L 212.140086 278.166343 L 212.807017 276.3848 L 218.618846 274.897599 L 221.143657 275.951033 L 223.065055 271.164103 L 225.431073 269.274118 L 237.515232 275.191941 L 254.966599 262.814087 L 259.206376 263.170395 L 265.573982 260.273451 L 268.019396 257.252573 L 271.719277 255.672421 L 272.179777 253.937353 L 270.845915 250.931967 L 277.562865 246.423887 L 291.393749 249.615174 L 293.076956 251.505159 L 299.444562 252.605068 L 300.254407 254.773904 L 310.687117 252.914902 L 316.895929 249.692632 L 318.483861 247.244946 L 323.168259 245.246519 L 325.407242 242.1172 L 324.613277 239.437139 L 326.058294 232.558832 L 329.075364 230.266063 L 329.694657 228.453536 Z M 331.26671 228.716895 " stroke="#ffffff" stroke-width="0.5" stroke-opacity="1" stroke-miterlimit="4"/><path stroke-linecap="butt" transform="matrix(0.245996, 0, 0, 0.252151, -0.0801695, 0.137298)" fill-opacity="1" fill="#cccccc" fill-rule="nonzero" stroke-linejoin="miter" d="M 330.933244 111.243471 L 332.632331 116.402201 L 335.284176 116.107859 L 340.984851 119.485046 L 344.986438 117.192277 L 350.623595 116.603593 L 356.276631 119.531521 L 357.499339 126.316877 L 364.946738 126.766136 L 365.867738 129.01243 L 369.29767 128.160387 L 370.45686 130.654548 L 368.297273 132.436092 L 367.789135 135.952703 L 366.677583 137.594822 L 364.962617 137.827197 L 362.10434 141.963476 L 357.832804 141.762084 L 352.020975 144.39567 L 351.544595 141.963476 L 346.272663 143.032402 L 342.207558 140.770617 L 342.302834 138.152522 L 340.508471 135.64287 L 337.253212 138.214489 L 336.745073 137.997605 L 336.094022 135.085169 L 332.124193 136.479421 L 331.314348 132.869859 L 331.743089 128.144896 L 329.948727 125.542293 L 330.456865 121.948223 L 328.995968 115.983925 Z M 330.933244 111.243471 " stroke="#ffffff" stroke-width="0.5" stroke-opacity="1" stroke-miterlimit="4"/><path stroke-linecap="butt" transform="matrix(0.245996, 0, 0, 0.252151, -0.0801695, 0.137298)" fill-opacity="1" fill="#cccccc" fill-rule="nonzero" stroke-linejoin="miter" d="M 365.327841 24.521035 L 368.916566 31.569751 L 371.489016 33.025969 L 376.776828 33.754078 L 381.429467 31.120492 L 382.382226 28.393956 L 384.525934 28.579856 L 384.510054 31.166967 L 387.431848 32.189418 L 384.38302 41.283035 L 376.824466 37.022823 L 375.760551 39.733867 L 376.903862 43.064579 L 384.700606 44.892597 L 384.907037 47.278316 L 388.051142 46.844549 L 390.766504 48.842976 L 387.765314 50.314686 L 389.432642 54.636865 L 396.975317 56.34095 L 397.038834 64.4431 L 395.450903 65.062767 L 395.149196 67.154144 L 398.388576 71.243948 L 398.309179 73.5677 L 401.707353 74.156384 L 400.325852 74.714085 L 398.642645 74.66761 L 399.039628 78.370122 L 397.785162 80.848791 L 400.579921 81.607883 L 403.215888 86.084979 L 405.454871 90.484617 L 406.979285 90.763467 L 408.773648 97.223499 L 407.376268 99.826101 L 405.137285 100.244377 L 403.882819 102.831488 L 401.882025 103.575088 L 403.835181 105.170731 L 402.945939 108.005709 L 401.754991 109.384469 L 393.640661 110.716754 L 392.814936 112.34338 L 390.830022 110.980112 L 384.36714 111.78568 L 383.271468 113.303864 L 384.954675 117.052852 L 382.731571 116.634576 L 370.806205 120.553972 L 367.662101 125.031068 L 369.29767 128.160387 L 365.867738 129.01243 L 364.946738 126.766136 L 357.499339 126.316877 L 356.276631 119.531521 L 350.623595 116.603593 L 344.986438 117.192277 L 340.984851 119.485046 L 335.284176 116.107859 L 332.632331 116.402201 L 330.933244 111.243471 L 328.23376 103.265255 L 329.424709 103.621563 L 333.664486 101.080927 L 337.189694 94.558929 L 334.553728 96.154573 L 331.584296 96.015147 L 331.9654 93.861804 L 330.313951 91.98731 L 330.774451 87.246856 L 329.265916 85.806129 L 328.93245 83.265493 L 326.439398 81.282558 L 328.360795 77.502588 L 328.059088 75.612602 L 326.344122 74.66761 L 327.77326 74.125401 L 327.296881 72.126974 L 328.23376 71.089031 L 325.296087 67.975203 L 326.502915 67.014719 L 326.328243 65.1867 L 324.962621 65.09375 L 324.152776 60.94198 L 324.692673 59.315353 L 326.884019 58.757652 L 327.408036 56.077592 L 328.884812 56.232508 L 331.933641 52.173688 L 332.378262 47.743067 L 334.28378 48.316259 L 342.286955 45.419314 L 341.635903 43.885638 L 338.761747 44.799647 L 337.30085 41.32951 L 338.793505 41.004185 L 340.317919 38.695924 L 344.192472 38.153716 L 345.542214 35.086363 L 348.352853 35.551113 L 352.481475 38.262157 L 353.180165 39.377558 L 351.465199 41.592869 L 348.035267 44.985547 L 351.020578 50.872386 L 356.165476 40.477468 L 357.324666 38.556499 L 356.117838 33.056952 L 357.848684 31.213442 L 358.579132 32.871052 L 357.594615 33.723095 L 358.753805 34.110387 L 360.532288 31.662701 L 358.737925 29.400915 L 358.245667 26.565937 L 360.452891 25.884303 L 360.294098 23.126784 L 362.882427 22.615559 Z M 365.327841 24.521035 " stroke="#ffffff" stroke-width="0.5" stroke-opacity="1" stroke-miterlimit="4"/></svg>